/* XPM */
static char *result[] = {
/* columns rows colors chars-per-pixel */
"32 32 252 2 ",
"   c black",
".  c #010101",
"X  c #030102",
"o  c #020202",
"O  c #020303",
"+  c gray1",
"@  c #050401",
"#  c #040404",
"$  c gray2",
"%  c #060606",
"&  c #070707",
"*  c #090407",
"=  c #0E0C05",
"-  c #07080A",
";  c gray3",
":  c #090909",
">  c #09090B",
",  c gray4",
"<  c #0B0B0B",
"1  c #0D0C09",
"2  c #0C0C0C",
"3  c gray5",
"4  c #0E0E0E",
"5  c gray6",
"6  c #1B1607",
"7  c #1C1607",
"8  c #170A10",
"9  c #101010",
"0  c #111111",
"q  c #121213",
"w  c #131313",
"e  c gray8",
"r  c #151515",
"t  c gray9",
"y  c #1B1812",
"u  c #1F1C16",
"i  c #191919",
"p  c gray10",
"a  c #1B1B1B",
"s  c gray11",
"d  c #1D1D1D",
"f  c #1E1E1E",
"g  c #202020",
"h  c gray13",
"j  c #222222",
"k  c #232323",
"l  c #252525",
"z  c gray15",
"x  c #272727",
"c  c gray16",
"v  c #292A2D",
"b  c #2D2D2D",
"n  c #2F2C2D",
"m  c gray18",
"M  c #2F2F2F",
"N  c #313131",
"B  c #323232",
"V  c gray20",
"C  c #343434",
"Z  c gray21",
"A  c #373737",
"S  c #3A3638",
"D  c gray22",
"F  c #3A3A3A",
"G  c #3D393B",
"H  c #3E3E3E",
"J  c #3F3F3F",
"K  c #5C4714",
"L  c #51411B",
"P  c #622F47",
"I  c #69304B",
"U  c #763654",
"Y  c #7D3A59",
"T  c gray25",
"R  c #434343",
"E  c gray27",
"W  c #464646",
"Q  c gray28",
"!  c #484848",
"~  c #494949",
"^  c #4B4B4B",
"/  c #4C4C4C",
"(  c gray30",
")  c #4E4E4E",
"_  c gray31",
"`  c #505050",
"'  c gray32",
"]  c #535353",
"[  c #505154",
"{  c gray33",
"}  c gray34",
"|  c #585858",
" . c gray36",
".. c #5D5D5D",
"X. c #5F5F5F",
"o. c #606060",
"O. c #626262",
"+. c gray39",
"@. c #656565",
"#. c gray40",
"$. c #676767",
"%. c #686763",
"&. c #6B6568",
"*. c #6E676B",
"=. c #686868",
"-. c #686869",
";. c DimGray",
":. c #6A6A6A",
">. c gray42",
",. c #6B6C6E",
"<. c #6C6C6C",
"1. c #6D6D6D",
"2. c #6C6C6E",
"3. c #6D6F6E",
"4. c gray43",
"5. c #6F6F6F",
"6. c #756F72",
"7. c #776E72",
"8. c gray44",
"9. c #707171",
"0. c #717372",
"q. c #727272",
"w. c gray45",
"e. c #777673",
"r. c #747474",
"t. c gray46",
"y. c #767676",
"u. c #777777",
"i. c #7A7771",
"p. c #787673",
"a. c #7A7477",
"s. c #7B7477",
"d. c #7A7871",
"f. c #7C7871",
"g. c #7A7976",
"h. c #7D7478",
"j. c #7D7579",
"k. c gray47",
"l. c #797979",
"z. c #7B7879",
"x. c gray48",
"c. c #7C7C7C",
"v. c gray49",
"b. c #8B6C22",
"n. c #8B6D23",
"m. c #807D76",
"M. c #C39932",
"N. c #CDA133",
"B. c #D7AB3E",
"V. c #E3B33E",
"C. c #EAB73B",
"Z. c #EBB83A",
"A. c #EBB83B",
"S. c #EBB93F",
"D. c #F6C03D",
"F. c #F6C13E",
"G. c #95855F",
"H. c #A69059",
"J. c #A6915E",
"K. c #D7AD46",
"L. c #DEB144",
"P. c #E3B543",
"I. c #E4BA51",
"U. c #9A7486",
"Y. c #AF708E",
"T. c #AA748D",
"R. c #AA748E",
"E. c #BA7897",
"W. c #DB74A5",
"Q. c #E06AA2",
"!. c #E16EA4",
"~. c #E86BA6",
"^. c #ED6DAA",
"/. c #F06FAC",
"(. c #E874AB",
"). c #EC74AC",
"_. c #F571AF",
"`. c #F774B2",
"'. c #FB74B3",
"]. c #FB74B4",
"[. c #FC74B4",
"{. c #FD74B5",
"}. c #FF78B9",
"|. c #FF78BA",
" X c gray51",
".X c #868686",
"XX c gray53",
"oX c #888888",
"OX c #898989",
"+X c gray54",
"@X c gray56",
"#X c #909090",
"$X c #929292",
"%X c gray58",
"&X c gray59",
"*X c #979797",
"=X c #989898",
"-X c #9B9B9B",
";X c gray62",
":X c #9F9F9F",
">X c #A2A2A2",
",X c #A4A4A4",
"<X c #A7A7A7",
"1X c #AEAEAE",
"2X c gray71",
"3X c #B7B7B7",
"4X c #B9B9B9",
"5X c gray73",
"6X c #BBBBBB",
"7X c #F1DDAD",
"8X c #C0C0C0",
"9X c #C3C3C3",
"0X c #C5C5C5",
"qX c #C6C6C6",
"wX c #CBCBCB",
"eX c #CFCFCD",
"rX c #CECECE",
"tX c gray82",
"yX c gray83",
"uX c #D5D5D5",
"iX c gray84",
"pX c #D7D7D7",
"aX c gainsboro",
"sX c #DDDDDD",
"dX c gray87",
"fX c #DFDFDF",
"gX c gray88",
"hX c #E2E2E2",
"jX c #E4E4E4",
"kX c gray90",
"lX c #E9E7E0",
"zX c #EDEAE3",
"xX c gray91",
"cX c #E9E9E9",
"vX c gray92",
"bX c #EEEEEE",
"nX c #EFEFEF",
"mX c #F1F1F1",
"MX c gray95",
"NX c #F3F3F3",
"BX c #F4F4F4",
"VX c gray96",
"CX c #F6F6F6",
"ZX c gray97",
"AX c #F8F8F8",
"SX c #F9F9F9",
"DX c gray98",
"FX c gray99",
"GX c #FDFDFD",
"HX c #FEFEFE",
"JX c white",
"KX c None",
/* pixels */
"KXKXKXKXKXKXKXKXKXKXKXKXKXKXKXKXKXKXKXKXKXKXKXKXKXKXKXKXKXKXKXKX",
"KXKXKXKX  + % & & KXKXKXKXKXKXKXKXKXKXKXKXKXKXKXKXKXKXKXKXKXKXKX",
"KXKXKXKX. n &.j.*.S : # & KXKXKXKXKXKXr.r.<.F & KXKXKXKXKXKXKXKX",
"KXKXKXKXX P Q.}.).Y.7.9.X.c +   d ..x.t.( t % & % KXKXKXKXKXKXKX",
"KXKXKXKXX I ~.|.[.[.(.R.a.w.| f g ..k.t.q.4.8.;.D < KXKXKXKXKXKX",
"KXKXKXKXKXKX^._.].{.'.`.W.U.0.3.5.w.r.r.e.d.f.i.p.@.b . KXKXKXKX",
"KXKXKXKXKXKX8 Y /.|.(.T.s.r.r.r.r.r.r.i.J.L.Z.B.H.%.v . KXKXKXKX",
"KXKXKXKXKXKX* U !.E.h.r.r.r.w.5.,.2.G.K.F.A.b.6 O % O   KXKXKXKX",
"KXKXKXKXKXKX< G 6.z.r.r.t.u.o.x - > L M.D.C.n.7 @ = KXKXKXKXKXKX",
"KXKXKXKX1.:.=.1.w.r.r.r.w.8.<.;.-.-.W y K N.S.P.V.I.7XeX[   KXKX",
"KXKXKXKX& % 9 J 5.u.r.k.@.m < < 5 w q 5 1 u m.zXJXlXg.a #   KXKX",
"KXKXKXKXKXKX#.>.1.4.4.4.4.1.4.8.%XiXMXnXxXhXkXbXZXSXBX0X)   KXKX",
"KXKXKXKX  + % & & & & + r ~ oXrXBXDXJXFX<XB % p OXuXq.0 KXKXKXKX",
"KXKXKXKXKXKXKXKXKXKXKX    . s } =XaXSXVXMXdXv.9   4 KXKXKXKXKXKX",
"KXKXKXKXvX#Xj   KXKXKXKXKXKXKX: c @. Xc.` i & KXKXKXKXKXKXKXKXKX",
"KXKXKXKX0 4.yX+Xa KXKXKXKXo s ] q.r.y.r.^ i & KXKXKXKXKXKXKXKXKX",
"KXKXKXKX+ O.gXJXgX4.$   0 / 8.r.q.5.5.x.1XdX.X0 KXKXKXKXKXKXKXKX",
"KXKXKXKX. m y.9XfXq.$   0 _ u.l.{ i ) tXJXCXXX0 KXKXKXKXKXKXKXKX",
"KXKXKXKX; B >.c.4.Z o   0 _ u.l.' w / iXJXZX+Xt   KXKXKXKXKXKXKX",
"KXKX  z o.u.8.H 2 KXKX  0 ) u.l.{ i / wXJXAX9Xk.C $ KXKXKXKXKXKX",
"KXKX  x @.c.8.F % KXKX  9 ~ q.x.x.q.~ s #.jXJXcXq.: KXKXKXKXKXKX",
"KXKX  z o.u.8.H 2 KXKX% $   A 6XsX=X` f X.pXJXnXy.: KXKXKXKXKXKX",
"KXKXKXKX; B #.r.$.V e E } a N 5XJXSXZXnX$Xc q.uXx.: KXKXKXKXKXKX",
"KXKXKXKXKXKX< D ;.r.+.m % o H 8XHXNXAXDX-Xp   4 KXKXKXKXKXKXKXKX",
"KXKXKXKXKXKXKXKX4 R o.l h &XxXNX2XR ..rX*Xi   KXKXKXKXKXKXKXKXKX",
"KXKXKXKXKXKXKXKXKX& % o + 4 0 < Q 4X,Xm . .   KXKXKXKXKXKXKXKXKX",
"KXKXKXKXKXKXKXKXKXKXKX  9 ! } z 9 i w #   KXKXKXKXKXKXKXKXKXKXKX",
"KXKXKXKXKXKXKXKXKXKXKX  o & T 3XZXBX,XM . KXKXKXKXKXKXKXKXKXKXKX",
"KXKXKXKXKXKXKXKXKXKXKX  k ;XBXFXGXGXZXjX@Xz   KXKXKXKXKXKXKXKXKX",
"KXKXKXKXKXKXKXKXKXKXKX  k :XMXMXMXmX>XM  .qX X9 KXKXKXKXKXKXKXKX",
"KXKXKXKXKXKXKXKXKXKXKX  o , 5 5 5 5 , o % 3 ; . KXKXKXKXKXKXKXKX",
"KXKXKXKXKXKXKXKXKXKXKXKXKXKXKXKXKXKXKXKXKXKXKXKXKXKXKXKXKXKXKXKX"
};
