/* XPM */
static char *result[] = {
/* columns rows colors chars-per-pixel */
"32 32 229 2 ",
"   c black",
".  c #010101",
"X  c #020202",
"o  c gray1",
"O  c #040404",
"+  c gray2",
"@  c #060606",
"#  c #070707",
"$  c #0A0206",
"%  c #080607",
"&  c gray3",
"*  c #090909",
"=  c #0A0A0C",
"-  c #0C0C0C",
";  c gray5",
":  c gray6",
">  c #140B0F",
",  c #180B11",
"<  c #101010",
"1  c #111111",
"2  c #131313",
"3  c gray8",
"4  c #151515",
"5  c #161717",
"6  c gray9",
"7  c #1A1719",
"8  c #191919",
"9  c gray10",
"0  c #1B1B1B",
"q  c #1D1D1D",
"w  c gray12",
"e  c #2A1F04",
"r  c #211C11",
"t  c #302813",
"y  c #1F2020",
"u  c #202020",
"i  c gray13",
"p  c #222222",
"a  c #232323",
"s  c gray14",
"d  c #252525",
"f  c gray15",
"g  c #272727",
"h  c #282828",
"j  c #292828",
"k  c #28282A",
"l  c #2A2A2A",
"z  c gray17",
"x  c #2C2C2C",
"c  c #2D2D2D",
"v  c #2F2F2F",
"b  c gray19",
"n  c #313231",
"m  c #323232",
"M  c gray20",
"N  c #343434",
"B  c #343435",
"V  c #353535",
"C  c gray21",
"Z  c gray22",
"A  c #393939",
"S  c #3A3A3A",
"D  c gray23",
"F  c gray24",
"G  c #3E3E3E",
"H  c #3F3F3F",
"J  c #413312",
"K  c #4B3B13",
"L  c #554315",
"P  c #5B4718",
"I  c #6E5517",
"U  c #47443B",
"Y  c #494439",
"T  c #3B3C40",
"R  c gray25",
"E  c #414141",
"W  c gray26",
"Q  c #434343",
"!  c #444444",
"~  c gray27",
"^  c #464646",
"/  c #484848",
"(  c gray29",
")  c #4B4B4B",
"_  c #4C4C4C",
"`  c gray30",
"'  c #4E4E4E",
"]  c gray31",
"[  c #4D514F",
"{  c gray32",
"}  c #535353",
"|  c gray33",
" . c #555555",
".. c #545655",
"X. c #565656",
"o. c #585858",
"O. c gray35",
"+. c #5A5A5A",
"@. c #5C5B59",
"#. c gray36",
"$. c #5D5D5D",
"%. c #5F5F5F",
"&. c #5F605F",
"*. c #5C625F",
"=. c #675F63",
"-. c #755C68",
";. c #606060",
":. c #606262",
">. c #626262",
",. c gray39",
"<. c #646464",
"1. c #656565",
"2. c #666667",
"3. c #676767",
"4. c #686868",
"5. c DimGray",
"6. c #6A6A6A",
"7. c #6A6B6D",
"8. c #6B6C6D",
"9. c #6C6C6C",
"0. c #6C6C6D",
"q. c #6D6D6D",
"w. c gray43",
"e. c #6F6F6F",
"r. c #736F63",
"t. c #6F7471",
"y. c gray44",
"u. c #707170",
"i. c #717171",
"p. c #727272",
"a. c gray45",
"s. c #717473",
"d. c #727574",
"f. c #747474",
"g. c gray46",
"h. c #767676",
"j. c #777777",
"k. c #787774",
"l. c #797678",
"z. c gray47",
"x. c #797979",
"c. c gray48",
"v. c #7B7B7B",
"b. c #7C7C7C",
"n. c #7E7E7E",
"m. c #9D4870",
"M. c #CDA133",
"N. c #D3A536",
"B. c #E1B038",
"V. c #F1BD3C",
"C. c #F3BE3D",
"Z. c #90856A",
"A. c #E2B441",
"S. c #E4B646",
"D. c #977A87",
"F. c #9F768A",
"G. c #9A7888",
"H. c #A07489",
"J. c #A9748D",
"K. c #C05C8B",
"L. c #CE5E92",
"P. c #C36B94",
"I. c #D974A3",
"U. c #DB76A6",
"Y. c #DA78A6",
"T. c #E969A5",
"R. c #EC6DA9",
"E. c #EF6EAA",
"W. c #EB74AC",
"Q. c #F276B0",
"!. c #FF74B7",
"~. c #FF75B7",
"^. c #FF76B7",
"/. c #FF75B8",
"(. c gray51",
"). c #868686",
"_. c #8E8E8E",
"`. c #949085",
"'. c #909090",
"]. c gray57",
"[. c #929292",
"{. c #939393",
"}. c gray58",
"|. c #959595",
" X c #949598",
".X c #9A9A9A",
"XX c #9B9B9B",
"oX c gray62",
"OX c #A0A0A0",
"+X c #A5A5A5",
"@X c #A9A9A9",
"#X c #AAAAAA",
"$X c gray68",
"%X c #AFAFAF",
"&X c gray69",
"*X c #B1B1B1",
"=X c gray71",
"-X c #B7B7B7",
";X c gray73",
":X c gray74",
">X c gray75",
",X c #C1C1C1",
"<X c gray76",
"1X c #C2C3C4",
"2X c gray78",
"3X c #C8C8C8",
"4X c gray79",
"5X c #CACACA",
"6X c gray80",
"7X c gray82",
"8X c #D5D5D5",
"9X c #D7D7D7",
"0X c gray85",
"qX c gray86",
"wX c gainsboro",
"eX c gray87",
"rX c #E1E2E3",
"tX c #E9E9E9",
"yX c #ECECEC",
"uX c gray93",
"iX c gray96",
"pX c #F6F6F6",
"aX c #F9F9F9",
"sX c #FBFBFB",
"dX c gray99",
"fX c #FDFDFD",
"gX c #FEFEFE",
"hX c white",
"jX c None",
/* pixels */
"jXjXjXjXjXjXjX  o O jXjXjXjXjXjXjXjXjXjXjXjXjXjXjXjXjXjXjXjXjXjX",
"jXjXjXjXjXjXjX* ..&.y   jXjXjXjXf.h.p jXjXjXjXjXjXjXjXjXjXjXjXjX",
"jXjXjXjXjXjXjX> P.Y.-.[ M   4 i.p.b + jXjXjXjXjXjXjXjXjXjXjXjXjX",
"jXjXjXjX      , T./.U.D.*.j 1 i.j.' ! p jXjXjXjXjXjXjXjXjXjXjXjX",
"jXjXjX9 ` '   , R.^.!.I.G.:.R q.E T 8.| p jXjXjXjXjXjXjXjXjXjXjX",
"jXjXW v.0X-X  $ m.E.~.W.J.d.z.0.k J Y 7.!   jXjXjXjXjXjXjXjXjXjX",
"jX  &XhXhX>XM n % L.Q.H.t.f.g.k.Z.S.I U B   jXjXjXjXjXjXjXjXjXjX",
"jX  oXpXfXdXiX3X7 K.F.s.f.y.2.r.A.V.B.P     jXjXjXjXjXjXjXjXjXjX",
"jXjX# {.hXaX4X0 * =.l.f.j. .= r N.C.L   # jXjXjXjXjXjXjXjXjXjXjX",
"jXjX  _.9X3.b %.,.u.f.f.g.e.>.@.t M.K   6.-X  jXjXjXjXjXjXjXjXjX",
"jXjX   ._.4./ i u <.h.j.' 8 q 5   e `.1X).g   jXjXjXjXjXjXjXjXjX",
"jXjX  H z.z.;.# W y.x.c.>.H ] |..X XrXhXwX3.  jXjXjXjXjXjXjXjXjX",
"jXjXjXh  .z.$.+ C A Z Z X.].6XhXhXhXhXhX7X9.jXjXjXjXjXjXjXjXjXjX",
"jXjXjX  v b.5.z p g l - 6 a.qXgXhXhX:X+X .  jXjXjXjXjXjXjXjXjXjX",
"jXjXjXjXz O.$.c.|.<.#.f O m ).0XwXeX{       jXjXjXjXjXjXjXjXjXjX",
"jXjXjXjXjX  3 q.5X^ @ O D j.f.g.g.g.j.A & jXjXjXjXjXjXjXjXjXjXjX",
"jXjXjXjXjXjXjX# 3 2X} F f.f.f.f.f.e.p.f.G   jXjXjXjXjXjXjXjXjXjX",
"jXjXjXjXjXjXjXjX@ 6XuXOXi.f.f.f.i.i } b.R   jXjXjXjXjXjXjXjXjXjX",
"jXjXjXjXjXjXjXjXO h.tX-Xy.f.f.f.i.1 ] c.6.R   jXjXjXjXjXjXjXjXjX",
"jXjXjXjXjXjXjXjXo +.XX$.~ h.f.f.a.} b { x.6.H o jXjXjXjXjXjXjXjX",
"jXjXjXjXjXjXjXjXO ;.z.g z b.j.f.f.x.0 F v.x.<.O jXjXjXjXjXjXjXjX",
"jXjXjXjXjXjXjXjXo G 5._ N ! ` a.f.g.W C #.9.A X jXjXjXjXjXjXjXjX",
"jXjXjXjXjXjXjXjXjX  ] n.] 6 x a.f.f.x.E M S     jXjXjXjXjXjXjXjX",
"jXjXjXjXjXjXjXjXjX  ~ e.h.g.i.<.a.g.f.z.( : 1 jXjXjXjXjXjXjXjXjX",
"jXjXjXjXjXjXjXjXjXjX& E e.w.o.1 >.9.i.f.p.i.#.- jXjXjXjXjXjXjXjX",
"jXjXjXjXjXjXjXjXjX. _ Z - : - . - - | g.a.g.a.%.; jXjXjXjXjXjXjX",
"jXjXjXjXjXjXjXjXo ( e.3.+.$.) o jXjX4 3 R z.f.a.O.: jXjXjXjXjXjX",
"jXjXjXjXjXjXjXjX  @X[.w.x.;.a jXjXjXjXjX2 F h.x.3X*XZ jXjXjXjXjX",
"jXjXjXjXjXjXjX& ).yX8X<X(.d jXjXjXjXjXjXjX< ` ,XsXhX$XQ     jXjX",
"jXjXjXjXjXjXs c.fXhXhXhX'.  jXjXjXjXjXjXjXjXc hXhXhXhX=XV w 1.jX",
"jXjXjXjXjXjXi &X&X%X%X=X;.  jXjXjXjXjXjXjXjXu #X%X%X%X;X>.V }.+ ",
"jXjXjXjXjXjX                jXjXjXjXjXjXjXjX                    "
};
