/* XPM */
static char *result[] = {
/* columns rows colors chars-per-pixel */
"32 32 89 1 ",
"  c #010101",
". c #050609",
"X c #0C0C0C",
"o c #100A00",
"O c #131313",
"+ c #1A1813",
"@ c #1B1B1B",
"# c #201907",
"$ c #271F0B",
"% c #201D18",
"& c #371D29",
"* c #3F1C2C",
"= c #242424",
"- c #272928",
"; c gray17",
": c #333333",
"> c #363638",
", c #363B39",
"< c #3B3B3B",
"1 c #3D423F",
"2 c #715A22",
"3 c #4D3641",
"4 c #743553",
"5 c #7C3959",
"6 c #444545",
"7 c #4C4C4C",
"8 c #514F4B",
"9 c #54524C",
"0 c #4E4F52",
"q c #545454",
"w c #515358",
"e c #5C5C5C",
"r c #646464",
"t c #676768",
"y c #6C6C6C",
"u c #6F7472",
"i c #747474",
"p c #7B7977",
"a c #7B7478",
"s c #7A7A7A",
"d c #8F6F23",
"f c #947321",
"g c #826C36",
"h c #A17E28",
"j c #81765B",
"k c #84747B",
"l c #A3812C",
"z c #D5AA3F",
"x c #DFB13E",
"c c #EDBA3D",
"v c #FFC93E",
"b c #A89463",
"n c #E1B64C",
"m c #E9BB4C",
"M c #9C6F84",
"N c #9E7588",
"B c #AA758E",
"V c #BD7496",
"C c #B27D96",
"Z c #D56298",
"A c #C27398",
"S c #F174AF",
"D c #F573B1",
"F c #FC74B4",
"G c #FF77BA",
"H c #828282",
"J c #8B8B8B",
"K c #939393",
"L c #969799",
"P c gray61",
"I c #A6A6A6",
"U c #ABABAB",
"Y c #AFAFB0",
"T c #B2B2B2",
"R c #BDBDBD",
"E c #BFC1C4",
"W c #C3C3C3",
"Q c #CDCDCD",
"! c #D4D4D4",
"~ c gray86",
"^ c #EDE3CA",
"/ c #EFE7D4",
"( c #FFF7DC",
") c #E4E4E4",
"_ c #EAEAEA",
"` c #F2F2F2",
"' c #F6F7FA",
"] c #FEFEFE",
"[ c None",
/* pixels */
"[[[[[[[[[[[[[   [[[[[[[[[[[[[[[[",
"[[[[[[[[[[[[ @1,. [[[[[s7[[[[[[[",
"[[[[[[[[[[[[ 3CM:;@[[[ie= [[[[[[",
"[[[[[[[[[[[[ 4GSNs6.Oys<O+[[[[[[",
"[[[[[[[[[[[[ 4GFDBi7@yuyyeX[[[[[",
"[[[[[[[[[[[[[ZFFDSByty;O<ieO[[[[",
"[[[[[[[[[[[[[[5FFVkiiiq22>yO[[[[",
"[[[[[[[[[[[[[[*DAkuissbmf.:X[[[[",
"[[[[[[[[[[[[[[&Aaiir79zvd   [[[[",
"[[[[[Q7[[[[[[@;iiisqO+lch#$[[[[[",
"[[[[[@Ry [[[yyyiiiiytr%fmxn^0[[[",
"[[[[[XW_s [ OO;iii6OOO oj(^8X [[",
"[[[[[.H`I  666<;;rr<qKPLE]'U: [[",
"[[[[[ qUi :yssy::>eKW]]]]]]U6[[[",
"[[[[[=rr<:iirqqei::H)]]])RU+[[[[",
"[[[[Oyi;;iiy=X@=ei,;J))_K . [[[[",
"[[[[Oyp;;py= y_W=qiyss:eq [[[[[[",
"[[[[Oyp--isTR)Q>.IILW;6yy6 [[[[[",
"[[[[X:te:<sT_]~JJpPUyX;esy6X[[[[",
"[[[[[ ,ye:66W]]]]<JT [[;eiyO[[[[",
"[[[[[[ ,ye.OJ_]'Q:yK [[ ;sy-[[[[",
"[[[[[[[ :qXe;i`!; ..[[[ ;yiy= [[",
"[[[[[[[[[X.ry6=;e@   [[ .-yp= [[",
"[[[[[[[[ X7-ey7qye7q6.[  =EHPy[[",
"[[[   [ O7y6:<7sssssy<X :I]W'J [",
"[[<76;==6iie@ O777tiii,.6TY`Qt[[",
"[ H])iyiiirO      <kJJy= .:~q [[",
"[ H]!@qiieX[[[[[[ <I`)6  :~`q [[",
"[ H]!XX@OO[[[[[[[ i`]]!7 X::[[[[",
"[[<K'I= [[[[[[[[[ J]]]]!e=JO[[[[",
"[[[>JJ@[[[[[[[[[[ 6KJJJKq@H+[[[[",
"[[[[   [[[[[[[[[[           [[[["
};
