/* XPM */
static char *result[] = {
/* columns rows colors chars-per-pixel */
"32 32 9 1 ",
"  c #F0A9B1",
". c #F0EFEF",
"X c #E8E7E7",
"o c #D1C8C8",
"O c #BAB9B9",
"+ c #D17373",
"@ c #7C7B7B",
"# c #937B3D",
"$ c #365C54",
/* pixels */
"oooooooooooooooooooooooooooooooo",
"oXXXXXXXXXXXXXXXXXXXXXXXXXXXXXXo",
"oXXXXXXXXXXXXXXXXXXXXXXXXXXXXXXo",
"oXXXXXXXXXXXXXXXXXXXXXXXXXXXXXXo",
"oXXXXXXXXXXXXXXXXXXXXXXXXXXXXXXo",
"oXXXXXXXXXXXXXXXXXXXXXXXXXXXXXXo",
"oXXXXXXXXXXXXXXXXXXXXXXXXXXXXXXo",
"oooooooooooooooooooooooooooooooo",
"@@@@@@@@@@@@@@@@@@@@@@@@@@@@@@@@",
"OOOOOOOOOOOOOOOOOOOOOOOOOOOOOOOO",
"OOOOOOOOOOOOOOOOOOOOOOOOOOOOOOOO",
"................................",
"OOOOOOOOOOOOOOOOOOOOOOOOOOOOOOOO",
"....+$+.....+$+.....+$+.....+$+.",
".....#.......#.......#.......#..",
"....+.+.....+.+.....+.+.....+.+.",
"@@@@@@@@@@@@@@@@@@@@@@@@@@@@@@@@",
"OOOOOOOOOOOOOOOOOOOOOOOOOOOOOOOO",
"................................",
"                                ",
"                                ",
"                                ",
"                                ",
"                                ",
"                                ",
"                                ",
"                                ",
"                                ",
"                                ",
"                                ",
"                                ",
"                                "
};
