/* XPM */
static char *result[] = {
/* columns rows colors chars-per-pixel */
"32 32 10 1 ",
"  c #F0EFEF",
". c #AAC8D0",
"X c #F0A9B1",
"o c #BAB9B9",
"O c #7CA2C1",
"+ c #D17373",
"@ c #558AC8",
"# c #7C7B7B",
"$ c #937B3D",
"% c #365C54",
/* pixels */
"XXXXXXXXXXXXX o#   o oo#@@@@@@@@",
"XXXXXXXXXXXXX o#+ +o oo#@......@",
"XXXXXXXXXXXXX o# $%o oo#@.OOOO.@",
"XXXXXXXXXXXXX o#+ +o oo#@.OOOO.@",
"XXXXXXXXXXXXX o#   o oo#@.OOOO.@",
"XXXXXXXXXXXXX o#   o oo#@.OOOO.@",
"XXXXXXXXXXXXX o#   o oo#@.OOOO.@",
"XXXXXXXXXXXXX o#   o oo#@.OOOO.@",
"XXXXXXXXXXXXX o#   o oo#@.OOOO.@",
"XXXXXXXXXXXXX o#+ +o oo#@.OOOO.@",
"XXXXXXXXXXXXX o# $%o oo#@.OOOO.@",
"XXXXXXXXXXXXX o#+ +o oo#@.OOOO.@",
"XXXXXXXXXXXXX o#   o oo#@.OOOO.@",
"XXXXXXXXXXXXX o#   o oo#@.OOOO.@",
"XXXXXXXXXXXXX o#   o oo#@.OOOO.@",
"XXXXXXXXXXXXX o#   o oo#@.OOOO.@",
"XXXXXXXXXXXXX o#   o oo#@.OOOO.@",
"XXXXXXXXXXXXX o#+ +o oo#@.OOOO.@",
"XXXXXXXXXXXXX o# $%o oo#@.OOOO.@",
"XXXXXXXXXXXXX o#+ +o oo#@.OOOO.@",
"XXXXXXXXXXXXX o#   o oo#@.OOOO.@",
"XXXXXXXXXXXXX o#   o oo#@.OOOO.@",
"XXXXXXXXXXXXX o#   o oo#@.OOOO.@",
"XXXXXXXXXXXXX o#   o oo#@.OOOO.@",
"XXXXXXXXXXXXX o#   o oo#@.OOOO.@",
"XXXXXXXXXXXXX o#+ +o oo#@.OOOO.@",
"XXXXXXXXXXXXX o# $%o oo#@.OOOO.@",
"XXXXXXXXXXXXX o#+ +o oo#@.OOOO.@",
"XXXXXXXXXXXXX o#   o oo#@.OOOO.@",
"XXXXXXXXXXXXX o#   o oo#@.OOOO.@",
"XXXXXXXXXXXXX o#   o oo#@......@",
"XXXXXXXXXXXXX o#   o oo#@@@@@@@@"
};
