/* XPM */
static char *result[] = {
/* columns rows colors chars-per-pixel */
"32 32 10 1 ",
"  c #F0A9B1",
". c #F0EFEF",
"X c #AAC8D0",
"o c #BAB9B9",
"O c #7CA2C1",
"+ c #D17373",
"@ c #558AC8",
"# c #7C7B7B",
"$ c #937B3D",
"% c #365C54",
/* pixels */
"@@@@@@@@@@@@@@@@@@@@@@@@@@@@@@@@",
"@XXXXXXXXXXXXXXXXXXXXXXXXXXXXXX@",
"@XOOOOOOOOOOOOOOOOOOOOOOOOOOOOX@",
"@XOOOOOOOOOOOOOOOOOOOOOOOOOOOOX@",
"@XOOOOOOOOOOOOOOOOOOOOOOOOOOOOX@",
"@XOOOOOOOOOOOOOOOOOOOOOOOOOOOOX@",
"@XXXXXXXXXXXXXXXXXXXXXXXXXXXXXX@",
"@@@@@@@@@@@@@@@@@@@@@@@@@@@@@@@@",
"################################",
"oooooooooooooooooooooooooooooooo",
"oooooooooooooooooooooooooooooooo",
"................................",
"oooooooooooooooooooooooooooooooo",
".+%+.....+%+.....+%+.....+%+....",
"..$.......$.......$.......$.....",
".+.+.....+.+.....+.+.....+.+....",
"################################",
"oooooooooooooooooooooooooooooooo",
"................................",
"                                ",
"                                ",
"                                ",
"                                ",
"                                ",
"                                ",
"                                ",
"                                ",
"                                ",
"                                ",
"                                ",
"                                ",
"                                "
};
