/* XPM */
static char *result[] = {
/* columns rows colors chars-per-pixel */
"32 32 12 1 ",
"  c black",
". c #5D3D1E",
"X c #7C5426",
"o c #935C2D",
"O c #A36B2D",
"+ c #B27335",
"@ c #C27B3D",
"# c #F09A5C",
"$ c #F0C1A9",
"% c #F0E7C1",
"& c #F0EFEF",
"* c None",
/* pixels */
"***************...**************",
"***********XX*......************",
"**********X++X.......***********",
"*********X+###X...XXXXX** ******",
"*********+#$$$#XXX+++++X *******",
"*********$$$$$#+++@@@@@&********",
"*********$$$$$$#+@@@@@@+& ******",
"*********$$$$$$#+@@@@@@+&   ****",
"*********$$$$o$#+@@@@@+@+o% ****",
"**********$$$#o#+@@@@@o++o%%****",
"***********$$$##+@@@@@+oo%%*****",
"************$$$$#+@@@@@%%%$*****",
"***************$##+@@@+%$$******",
"******************X+@oooX*******",
"******************X+@#Xoo.******",
"*****************X@@@XX@+X******",
"****************.@@@@X@@@o******",
"***************XO@@@@@@@o*******",
"******XXXX****X+@@@@@@+o********",
"*****XXoO@@+Oo+@@@@@@+**********",
"*********XO+@@@@@@@@@o**********",
"************o+@@@@..@o**********",
"*************X@@@@@.#***********",
"*************.O@@@@@.***********",
"*************+.+@@@@.X**********",
"************O@+..XX@@X**********",
"***********X@@+XXO@@@X**********",
"***********O@@XX@@@@+***********",
"***********+@@X+@@@OX***********",
"***********oooX+@OX*************",
"**************X@+***************",
"**************X@o***************"
};
