/* XPM */
static char *result[] = {
/* columns rows colors chars-per-pixel */
"32 32 12 1 ",
"  c black",
". c #5D3D1E",
"X c #7C5426",
"o c #935C2D",
"O c #A36B2D",
"+ c #B27335",
"@ c #C27B3D",
"# c #F09A5C",
"$ c #F0C1A9",
"% c #F0E7C1",
"& c #F0EFEF",
"* c None",
/* pixels */
"****************......**********",
"************XXXX.......*********",
"***********X####X...XXXXX** ****",
"**********X+#$$$#XXX+++++X *****",
"**********+#$$$$#+++@@@@@&******",
"**********$$$$$$$#+@@@@@@+& ****",
"**********$$$$$$$#+@@@@@@+&   **",
"**********$$$$$o$#+@@@@@+@+o% **",
"**********$$$$$#o#+@@@@@o++o%%**",
"***********$$$$$##+@@@@@+oo%%***",
"************$$$$$$#+@@@@@%%%$***",
"*****************$##+@@@+%$$****",
"********************X+@ooo******",
"*******************X@#$oOX******",
"******************X@@+$XOO******",
"*****************.+@@@X@@@o*****",
"****************XO+@@@X@@+X*****",
"*****XoooXX****X+@@@@@@+OX******",
"********XO@@+OO+@@@@@@+.********",
"**********X.+@@@@@@@@+.*********",
"*************.+@@@@@+Oo*********",
"**************o@@@@@O#**********",
"**************.@@@@@.O**********",
"**************X@@@@@.***********",
"**************X@@@@.************",
"**************X@@@.o************",
"**************X@@+X.************",
"***************++o**************",
"***************+++O@X***********",
"***************+@@@@o***********",
"***************+@@@@O***********",
"****************OOOO************"
};
