/* XPM */
static char *result[] = {
/* columns rows colors chars-per-pixel */
"32 32 12 1 ",
"  c black",
". c #5D3D1E",
"X c #7C5426",
"o c #935C2D",
"O c #A36B2D",
"+ c #B27335",
"@ c #C27B3D",
"# c #F09A5C",
"$ c #F0C1A9",
"% c #F0E7C1",
"& c #F0EFEF",
"* c None",
/* pixels */
"********************************",
"********************************",
"***************......***********",
"***********XXXX.......**********",
"**********X####X...XXXXX** *****",
"*********X+#$$$#XXX+++++X ******",
"*********+#$$$$#+++@@@@@&*******",
"*********$$$$$$$#+@@@@@@+& *****",
"*********$$$$$$$#+@@@@@@+&   ***",
"*********$$$$$o$#+@@@@@+@+o% ***",
"*********$$$$$#o#+@@@@@o++o%%***",
"**********$$$$$##+@@@@@+oo%%****",
"***********$$$$$$#+@@@@@%%%$****",
"****************$##+@@@+%$$*****",
"*******************X+@ooo*******",
"******************X+o#ooX*******",
"*****************X@@+oX++X******",
"****************XO@@+X+@@o******",
"***************o+@@@@+@@OX******",
"****XoOO+OoX**o@@@@@.++o********",
"********X..@@+@@@@@@.O**********",
"**********X..@@@@@@@@.**********",
"*********XXoo.++@@@@@.**********",
"*******XX+@@@..OoO+Oo.X*********",
"******X@@@@@@@o..XX@X+@*********",
"******o@@@@++X**X+@++@X*********",
"******X@@+*******.oo+X**********",
"******X@++**********************",
"******OO+***********************",
"********************************",
"********************************",
"********************************"
};
