/* XPM */
static char *result[] = {
/* columns rows colors chars-per-pixel */
"50 48 30 1 ",
"  c #598DC8",
". c #5A8EC8",
"X c #6391C8",
"o c #6394C9",
"O c #6696C9",
"+ c #6A99CA",
"@ c #6F9DCA",
"# c #709DCA",
"$ c #7CA2C1",
"% c #76A2CB",
"& c #84A8C3",
"* c #8AAEC5",
"= c #8FA7C8",
"- c #80A9CC",
"; c #82AACC",
": c #8EB1C6",
"> c #90B2C7",
", c #93B5C8",
"< c #94B6C9",
"1 c #9BBCCB",
"2 c #9DBDCB",
"3 c #98BACE",
"4 c #9ABCCE",
"5 c #A2C1CD",
"6 c #A4C3CE",
"7 c #A5C4CE",
"8 c #A6C5CF",
"9 c #A8C6CF",
"0 c #A8C7CF",
"q c #A9C7CF",
/* pixels */
"=.#%%%%%%%%%%%%%%%%%%%%%%%%%%%%%%%%%%%%%%%%%%%%%OX",
"=o4q9999999999999999999999999999999999999999990q;X",
"=o41******************************************>6;X",
"=o4<$$$$$$$$$$$$$$$$$$$$$$$$$$$$$$$$$$$$$$$$$$&5;X",
"=o4<$$$$$$$$$$$$$$$$$$$$$$$$$$$$$$$$$$$$$$$$$$&5;X",
"=o4<$$$$$$$$$$$$$$$$$$$$$$$$$$$$$$$$$$$$$$$$$$&5;X",
"=o4<$$$$$$$$$$$$$$$$$$$$$$$$$$$$$$$$$$$$$$$$$$&5;X",
"=o4<$$$$$$$$$$$$$$$$$$$$$$$$$$$$$$$$$$$$$$$$$$&5;X",
"=o4<$$$$$$$$$$$$$$$$$$$$$$$$$$$$$$$$$$$$$$$$$$&5;X",
"=o4<$$$$$$$$$$$$$$$$$$$$$$$$$$$$$$$$$$$$$$$$$$&5;X",
"=o4<$$$$$$$$$$$$$$$$$$$$$$$$$$$$$$$$$$$$$$$$$$&5;X",
"=o4<$$$$$$$$$$$$$$$$$$$$$$$$$$$$$$$$$$$$$$$$$$&5;X",
"=o4<$$$$$$$$$$$$$$$$$$$$$$$$$$$$$$$$$$$$$$$$$$&5;X",
"=o4<$$$$$$$$$$$$$$$$$$$$$$$$$$$$$$$$$$$$$$$$$$&5;X",
"=o4<$$$$$$$$$$$$$$$$$$$$$$$$$$$$$$$$$$$$$$$$$$&5;X",
"=o4<$$$$$$$$$$$$$$$$$$$$$$$$$$$$$$$$$$$$$$$$$$&5;X",
"=o4<$$$$$$$$$$$$$$$$$$$$$$$$$$$$$$$$$$$$$$$$$$&5;X",
"=o4<$$$$$$$$$$$$$$$$$$$$$$$$$$$$$$$$$$$$$$$$$$&5;X",
"=o4<$$$$$$$$$$$$$$$$$$$$$$$$$$$$$$$$$$$$$$$$$$&5;X",
"=o4<$$$$$$$$$$$$$$$$$$$$$$$$$$$$$$$$$$$$$$$$$$&5;X",
"=o4<$$$$$$$$$$$$$$$$$$$$$$$$$$$$$$$$$$$$$$$$$$&5;X",
"=o4<$$$$$$$$$$$$$$$$$$$$$$$$$$$$$$$$$$$$$$$$$$&5;X",
"=o4<$$$$$$$$$$$$$$$$$$$$$$$$$$$$$$$$$$$$$$$$$$&5;X",
"=o4<$$$$$$$$$$$$$$$$$$$$$$$$$$$$$$$$$$$$$$$$$$&5;X",
"=o4<$$$$$$$$$$$$$$$$$$$$$$$$$$$$$$$$$$$$$$$$$$&5;X",
"=o4<$$$$$$$$$$$$$$$$$$$$$$$$$$$$$$$$$$$$$$$$$$&5;X",
"=o4<$$$$$$$$$$$$$$$$$$$$$$$$$$$$$$$$$$$$$$$$$$&5;X",
"=o4<$$$$$$$$$$$$$$$$$$$$$$$$$$$$$$$$$$$$$$$$$$&5;X",
"=o4<$$$$$$$$$$$$$$$$$$$$$$$$$$$$$$$$$$$$$$$$$$&5;X",
"=o4<$$$$$$$$$$$$$$$$$$$$$$$$$$$$$$$$$$$$$$$$$$&5;X",
"=o4<$$$$$$$$$$$$$$$$$$$$$$$$$$$$$$$$$$$$$$$$$$&5;X",
"=o4<$$$$$$$$$$$$$$$$$$$$$$$$$$$$$$$$$$$$$$$$$$&5;X",
"=o4<$$$$$$$$$$$$$$$$$$$$$$$$$$$$$$$$$$$$$$$$$$&5;X",
"=o4<$$$$$$$$$$$$$$$$$$$$$$$$$$$$$$$$$$$$$$$$$$&5;X",
"=o4<$$$$$$$$$$$$$$$$$$$$$$$$$$$$$$$$$$$$$$$$$$&5;X",
"=o4<$$$$$$$$$$$$$$$$$$$$$$$$$$$$$$$$$$$$$$$$$$&5;X",
"=o4<$$$$$$$$$$$$$$$$$$$$$$$$$$$$$$$$$$$$$$$$$$&5;X",
"=o4<$$$$$$$$$$$$$$$$$$$$$$$$$$$$$$$$$$$$$$$$$$&5;X",
"=o4<$$$$$$$$$$$$$$$$$$$$$$$$$$$$$$$$$$$$$$$$$$&5;X",
"=o4<$$$$$$$$$$$$$$$$$$$$$$$$$$$$$$$$$$$$$$$$$$&5;X",
"=o4<$$$$$$$$$$$$$$$$$$$$$$$$$$$$$$$$$$$$$$$$$$&5;X",
"=o4<$$$$$$$$$$$$$$$$$$$$$$$$$$$$$$$$$$$$$$$$$$&5;X",
"=o4<$$$$$$$$$$$$$$$$$$$$$$$$$$$$$$$$$$$$$$$$$$&5;X",
"=o4<$$$$$$$$$$$$$$$$$$$$$$$$$$$$$$$$$$$$$$$$$$&5;X",
"=o4<$$$$$$$$$$$$$$$$$$$$$$$$$$$$$$$$$$$$$$$$$$&5;X",
"=o42::::::::::::::::::::::::::::::::::::::::::,7;X",
"=o3888888888888888888888888888888888888888888888-X",
"= +@@@@@@@@@@@@@@@@@@@@@@@@@@@@@@@@@@@@@@@@@@@@@oX"
};
