/* XPM */
static char *_bbae0ea67bb455ae29acae40768856aQv8LwYFGZ6ZCfcvQ[] = {
/* columns rows colors chars-per-pixel */
"33 33 8 1 ",
"  c None",
". c #FFFF52",
"X c #FFCE39",
"o c #FFEF4A",
"O c #FFBD31",
"+ c #FFDE42",
"@ c #FF7B18",
"# c #FF9421",
/* pixels */
"                                 ",
"                                 ",
"                                 ",
"                                 ",
"                                 ",
"              ..                 ",
"            ...X                 ",
"           ....oX                ",
"          .......oX..            ",
"        o..............          ",
"       o...XXX....ooX.....       ",
"     OO+oXXXXXX..o.XX........    ",
"    OXXXX..XXX.XOO....OOOOOOOO   ",
"   OXXXOo......XXXXXXX@@XXXXXO   ",
"   OXXXOo......XXXXXXX@@XXXXO    ",
"  OXXXXXOo....oXXXXXXX##XXXO     ",
"  OXXXXXXOooooOXXXXXXXXXXXXO     ",
"  OXXXXXXXOOOOXXX#@@XXXXXXXXO    ",
"  OXXXXX@@@OXXXXXX#XXXXXXXXXXO   ",
"  OXXXX@@@@@OXXXXXXXXXXXXXXXXO   ",
"  OXXX@@@@@@@XXXXXXXXXXXXXXXXO   ",
"  OXXX@@@@@@@XXXX@@XXXXXXO@@@O   ",
"   OXoO#@@@@#XXX@@@@XXXXX@@@@@   ",
"   OXoO##@##XXXX@@@#XXXXX@@@@@   ",
"    OXoO####XXXX####XXXXX#@@@#   ",
"    OXXooooXXXXXXXXXXXXXXX@@#O   ",
"     OOOOOOOOOOOOOOOOOOOOOOOO    ",
"                                 ",
"                                 ",
"                                 ",
"                                 ",
"                                 ",
"                                 "
};
