/* XPM */
static char *result[] = {
/* columns rows colors chars-per-pixel */
"32 32 8 1 ",
"  c #FF7B18",
". c #FF9421",
"X c #FFBD31",
"o c #FFCE39",
"O c #FFDE42",
"+ c #FFEF4A",
"@ c #FFFF52",
"= c #7ca2c1 ",
/* pixels */
"================================",
"================================",
"================================",
"================================",
"==============@@================",
"============@@@o================",
"===========@@@@+o===============",
"==========@@@@@@@+o@@===========",
"========+@@@@@@@@@@@@@@=========",
"=======+@@@ooo@@@@++o@@@@@======",
"=====XXO+oooooo@@+@oo@@@@@@@@===",
"====Xoooo@@ooo@oXX@@@@XXXXXXXX==",
"===XoooX+@@@@@@ooooooo  oooooX==",
"===XoooX+@@@@@@ooooooo  ooooX===",
"==XoooooX+@@@@+ooooooo..oooX====",
"==XooooooX++++XooooooooooooX====",
"==XoooooooXXXXooo.  ooooooooX===",
"==Xooooo   Xoooooo.ooooooooooX==",
"==Xoooo     XooooooooooooooooX==",
"==Xooo       ooooooooooooooooX==",
"==Xooo       oooo  ooooooX   X==",
"===Xo+X.    .ooo    ooooo     ==",
"===Xo+X.. ..oooo   .ooooo     ==",
"====Xo+X....oooo....ooooo.   .==",
"====Xoo++++ooooooooooooooo  .X==",
"=====XXXXXXXXXXXXXXXXXXXXXXXX===",
"================================",
"================================",
"================================",
"================================",
"================================",
"================================"
};
