/* XPM */
static char *result[] = {
/* columns rows colors chars-per-pixel */
"32 32 7 1 ",
"  c #FF7B18",
". c #FF9421",
"X c #FFBD31",
"o c #FFCE39",
"O c #FFEF4A",
"+ c #FFFF52",
"@ c None",
/* pixels */
"@@@@@@@@@@@@@@@@@@@@@@@@@@@@@@@@",
"@@@@@@@@@@@@@@@@@@@@@@@@@@@@@@@@",
"@@@@@++@@@@@@@@@@@@@@@@@@@@@@@@@",
"@@@@+++@@@@@@@@@@@@@@@++@@@@@@@@",
"@@@++++@@@@@@@@@@@@@@OOo+@@@@@@@",
"@@@@+++@@@@@@@@@@@@@@+oo+@@@@@@@",
"@@@@@@@@@@@@@@@@@@@@@++++@@@@@@@",
"@@@@@@@@+++@@@@@@@@@@oooo@+++@@@",
"@@@@@@@@Oooo@@@@@@@@@@@@@@XXXX@@",
"@@@@@@@@o++o@@@@@@@@@@@@@@oooX@@",
"@@@@@@@@@++@@@@@@@@@@@@@@@ooX@@@",
"@@@@@@@@@@@@@@@@@@@@@@@@@@@@@@@@",
"@@@@@@@@@@@@OX@@@@@@@@@@@@@@@@@@",
"@@@@@@@@@@@oXoXOO@@@@@@@@@@@@@@@",
"@@@@@@@@@@@ooooXX@@@@@@@@@@@@@@@",
"@@@@@@@@@@@ooooXX@@@@@@@@@X@@@@@",
"@@@@@@@@@@@o   Xo@@@@@@@@@X@@@@@",
"@@@@@@@@@@@@    @@@@@@@@@@oX@@@@",
"@@@oooo@@@@@@@@@@@@@@@@@@oooX@@@",
"@@@ooooo@@@@@@@@@@@@@ooo@oooX@@@",
"@@@oooooo@@@@@@@@@@@oooo@@@@@@@@",
"@@@oooo  @@@@@@@@@@@oooo@@@@@@@@",
"@@@ooo  @@@@@@@@@@@@@ooo@@@@@@@@",
"@@@oo   @@@@@@@@@@@@@@@@@@@@@@@@",
"@@@@@@@@@@@@@@@@@@@@@@@@@@@@@@@@",
"@@@@@@@@@@@@@@@@@@@@@@@@@@@@@@@@",
"@@@@@@@@@@@@@@@@@@@@@@@X@@@@@@@@",
"@@@@@@@@@@ Xo@@@@@@@@@oX@@@@@@@@",
"@@@@@@@@@@  oo@@@@@@@oo  @@@@@@@",
"@@@@@@@@@@  oo@@@@@@@oo  @@@@@@@",
"@@@@@@@@@@  oo@@@@@@@@o.@@@@@@@@",
"@@@@@@@@@@@@@@@@@@@@@@@@@@@@@@@@"
};
