/* XPM */
static char *result[] = {
/* columns rows colors chars-per-pixel */
"32 32 6 1 ",
"  c #7C5426",
". c #935C2D",
"X c #A36B2D",
"o c #B27335",
"O c #C27B3D",
"+ c None",
/* pixels */
"++++++++++++++++++++++++++++++++",
"++++++++++++++++++++++++++++++++",
"++++++++++++       +++++++++++++",
"+++++++++++ ooooooo ++++++++++++",
"++++++++++ oOOOOOOOo +++++++++++",
"+++++++++ oOOOOOOOOOo ++++++++++",
"+++++++++ oOOOOOOOOOo ++++++++++",
"++++++++ oOOOOOOOOOOOo +++++++++",
"++++++++ OOOOOO  OOOOOo ++++++++",
"+++++++ oOOOOOOO  OOOOo ++++++++",
"+++++++ oOOOOO  OOOOOOO ++++++++",
"++++++ oOoooOOOOOOOoooOo +++++++",
"+++++ oOO   oOOOOOo   oOo ++++++",
"+++++ ooo+ o ooooo oo  oOo +++++",
"++++ oo  + oo     oo ++ oo +++++",
"++++   ++++ ooooooOo +++   +++++",
"+++++++++++ oOOOOOOX +++++++++++",
"++++++++++++ oOOOOO o ++++++++++",
"++++++++++++.oOOOOOOo ++++++++++",
"++++++++++++.oOOOOOo.+++++++++++",
"++++++++++++.XXoOOo.++++++++++++",
"++++++++++++.Oo.oOX+++++++++++++",
"++++++++++++ OOo.OO ++++++++++++",
"++++++++++++ oOO .OX++++++++++++",
"+++++++++++++oOO +XO +++++++++++",
"+++++++++++++oOO.+ oX+++++++++++",
"+++++++++++++oOO.++ o+++++++++++",
"++++++++++++XXOOX+++o ++++++++++",
"++++++++++++XXOOX+++ .++++++++++",
"++++++++++++X.OOX++++.++++++++++",
"++++++++++++++  ++++++++++++++++",
"++++++++++++++++++++++++++++++++"
};
