/* XPM */
static char *result[] = {
/* columns rows colors chars-per-pixel */
"32 32 7 1 ",
"  c #5D3D1E",
". c #7C5426",
"X c #935C2D",
"o c #A36B2D",
"O c #B27335",
"+ c #C27B3D",
"@ c None",
/* pixels */
"@@@@@@@@@@@@@@@@@@@@@@@@@@@@@@@@",
"@@@@@@@@@@@@@@@@@@@@@@@@@@@@@@@@",
"@@@@@@@@@@@@.......@@@@@@@@@@@@@",
"@@@@@@@@@@@.OOOOOOO.@@@@@@@@@@@@",
"@@@@@@@@@@.O+++++++O.@@@@@@@@@@@",
"@@@@@@@@@.O+++++++++O.@@@@@@@@@@",
"@@@@@@@@@.O+++++++++O.@@@@@@@@@@",
"@@@@@@@@.O+++++.+++++O.@@@@@@@@@",
"@@@@@@@.O+++++++.+++++O.@@@@@@@@",
"@@@@@@@.O+++++.+..++++O.@@@@@@@@",
"@@@@@@.O+++++++.+++++++O.@@@@@@@",
"@@@@@.O++OOO+++++++OOO++O.@@@@@@",
"@@@@@.OOO...O+++++O...OO+O.@@@@@",
"@@@@.OO..@@@.OOOOO.OO...OO.@@@@@",
"@@@@...@@@@@......++O.@@...@@@@@",
"@@@@@@@@@@@@.OOOOO++O.@@@@@@@@@@",
"@@@@@@@@@@@@.+++++++O.@@@@@@@@@@",
"@@@@@@@@@@@@X++++++OX@@@@@@@@@@@",
"@@@@@@@@@@@@.OOO++OX@@@@@@@@@@@@",
"@@@@@@@@@@@@.+oXO+X@@@@@@@@@@@@@",
"@@@@@@@@@@@@.O+oo+o@@@@@@@@@@@@@",
"@@@@@@@@@@@@@O+OX+O@@@@@@@@@@@@@",
"@@@@@@@@@@@@@o++XOO@@@@@@@@@@@@@",
"@@@@@@@@@@@@@o++Xo+.@@@@@@@@@@@@",
"@@@@@@@@@@@@@o++X.+.@@@@@@@@@@@@",
"@@@@@@@@@@@@@.++O Oo@@@@@@@@@@@@",
"@@@@@@@@@@@@@@X..@.o@@@@@@@@@@@@",
"@@@@@@@@@@@@@@@@@@@X@@@@@@@@@@@@",
"@@@@@@@@@@@@@@@@@@@.@@@@@@@@@@@@",
"@@@@@@@@@@@@@@@@@@@@@@@@@@@@@@@@",
"@@@@@@@@@@@@@@@@@@@@@@@@@@@@@@@@",
"@@@@@@@@@@@@@@@@@@@@@@@@@@@@@@@@"
};
