/* XPM */
static char *result[] = {
/* columns rows colors chars-per-pixel */
"32 32 10 1 ",
"  c #7C5426",
". c #935C2D",
"X c #A36B2D",
"o c #B27335",
"O c #C27B3D",
"+ c #D1833D",
"@ c #B29264",
"# c #F0C1A9",
"$ c #F0E7C1",
"% c None",
/* pixels */
"%%%%%%%%%%%%%%%%%%%%%%%%%%%%%%%%",
"%%%%%%%%%%%%       %%%%%%%%%%%%%",
"%%%%%%%%%%% ooooooo %%%%%%%%%%%%",
"%%%%%%%%%% oOOOOOOOo %%%%%%%%%%%",
"%%%%%%%%% oOOOOOOOOOo %%%%%%%%%%",
"%%%%%%%%  oOOOOOOOOOo %%%%%%%%%%",
"%%%%%%% ooOOOOO OOOOOo  %%%%%%%%",
"%%%%%%% oOOOOOOO OOOOOo %%%%%%%%",
"%%%%%% oOOOOOO O  OOOOoo %%%%%%%",
"%%%%% oOOOOOOOO OOOOOOOOo %%%%%%",
"%%%%% ooooooOOOOOOOoooOOOo %%%%%",
"%%%% oo     oOOOOOo   oooo %%%%%",
"%%%%   %%%%  ooooo .%      %%%%%",
"%%%%%%%%%%% o     oO.%%%%%%%%%%%",
"%%%%%%%%%%% ooooooOOo.%%%%%%%%%%",
"%%%%%%%%%%%% .OOOOOOo.%%%%%%%%%%",
"%%%%%%%%%%%% oOOOOOOo.%%%%%%%%%%",
"%%%%%%%%%%%% oOOOOOOo.%%%%%%%%%%",
"%%%%%%%%%%%% oOOOOOo.%%%%%%%%%%%",
"%%%%%%%%%%%% oXoOOo.%%%%%%%%%%%%",
"%%%%%%%%%%%% oX.OO.%%%%%%%%%%%%%",
"%%%%%%%%%%%% oOXoO.%%%%%%%%%%%%%",
"%%%%%%%%%%%% oOXXO.%%%%%%%%%%%%%",
"%%%%%%%%%%%%%XOo.O.%%%%%%%%%%%%%",
"%%%%%%%%%%%%%.Oo.O.%%%%%%%%%%%%%",
"%%%%%%%%%%%%%.OO.oX%%%%%%%%%%%%%",
"%%%%%%%%%%%%%o@OXXo%%%%%%%%%%%%%",
"%%%%%%%%%%%%%O$#X o%%%%%%%%%%%%%",
"%%%%%%%%%%%%%+$#X%X%%%%%%%%%%%%%",
"%%%%%%%%%%%% o@@X% %%%%%%%%%%%%%",
"%%%%%%%%%%%% oOOX%%%%%%%%%%%%%%%",
"%%%%%%%%%%%%%% . %%%%%%%%%%%%%%%"
};
