/* XPM */
static char *result[] = {
/* columns rows colors chars-per-pixel */
"32 32 9 1 ",
"  c #5D3D1E",
". c #7C5426",
"X c #935C2D",
"o c #A36B2D",
"O c #B27335",
"+ c #C27B3D",
"@ c #D1833D",
"# c #F0C1A9",
"$ c None",
/* pixels */
"$$$$$$$$$$$$$$$$$$$$$$$$$$$$$$$$",
"$$$$$$$$$$.......$$$$$$$$$$$$$$$",
"$$$$$$$$$.OOOOOOO.$$$$$$$$$$$$$$",
"$$$$$$$$.O+++++++O.$$$$$$$$$$$$$",
"$$$$$$$.O+++++++++O.$$$$$$$$$$$$",
"$$$$$$$.O+++++++++O.$$$$$$$$$$$$",
"$$$$$$.O+++++.+++++O.$$$$$$$$$$$",
"$$$$$.O+++++++.+++++O.$$$$$$$$$$",
"$$$$$.O+++++.+..++++O.$$$$$$$$$$",
"$$$$.O+++++++.+++++++O.$$$$$$$$$",
"$$$.O++OOO+++++++OOO++O.$$$$$$$$",
"$$$.OOO...O+++++O...OO+O.$$$$$$$",
"$$.OO..$$$.OOOOO..$...OO.$$$$$$$",
"$$...$$$$$......O.$$$$...$$$$$$$",
"$$$$$$$$$$.OOOOO+O.$$$$$$$$$$$$$",
"$$$$$$$$$$.O+++++O.$$$$$$$$$$$$$",
"$$$$$$$$$$.O+++++O.$$$$$$$$$$$$$",
"$$$$$$$$$$.O++++++O.$$$$$$$$$$$$",
"$$$$$$$$$$.O++++++O.$$$$$$$$$$$$",
"$$$$$$$$$$.O++++++O.$$$$$$$$$$$$",
"$$$$$$$$$$$.O+++++O.$$$$$$$$$$$$",
"$$$$$$$$$$$$.O++o+O.$$$$$$$$$$$$",
"$$$$$$$$$$$$$.+oo+O$$$$$$$$$$$$$",
"$$$$$$$$$$$$$.+XO+o$$$$$$$$$$$$$",
"$$$$$$$$$$$$X+X.++O$$$$$$$$$$$$$",
"$$$$$$$$$$$.OO X+OO$$$$$$$$$$$$$",
"$$$$$$$$$$XX.$$X@#O$$$$$$$$$$$$$",
"$$$$$$$$..$$$$$o##O$$$$$$$$$$$$$",
"$$$$$$$$$$$$$$$o##o$$$$$$$$$$$$$",
"$$$$$$$$$$$$$$$o++o$$$$$$$$$$$$$",
"$$$$$$$$$$$$$$$$..$$$$$$$$$$$$$$",
"$$$$$$$$$$$$$$$$$$$$$$$$$$$$$$$$"
};
