/* XPM */
static char *result[] = {
/* columns rows colors chars-per-pixel */
"32 32 8 1 ",
"  c #7C5426",
". c #935C2D",
"X c #A36B2D",
"o c #B27335",
"O c #C27B3D",
"+ c #F09A5C",
"@ c #F0C1A9",
"# c None",
/* pixels */
"################################",
"################################",
"################################",
"############       #############",
"########### ooooooo ############",
"########## oOOOOOOOo ###########",
"######### oOOOOOOOOOo ##########",
"######## oOOOOO OOOOo ##########",
"####### oOOOOOO OOOOOo #########",
"####### oOOOOOOO OOOOOo ########",
"###### oOOOOOO O  OOOOOo #######",
"##### oOOOOOOOO OOOOOOOOo ######",
"##### ooooooOOOOOOOoooOOOo #####",
"#### oo     oOOOOOo   oooo #####",
"####   ####  ooooo oo      #####",
"############      oOo ##########",
"############ oooooOo ###########",
"############ oOOOOOo ###########",
"############ oOOOOOo ###########",
"############ oOOOOOo ###########",
"############# oOOOOo ###########",
"############## oOOOo ###########",
"############### OOXX ###########",
"############### Oo.o ###########",
"############### OXXO.###########",
"############### O.oO.###########",
"###############oo.@@.###########",
"############# .. X@+############",
"############  ####..############",
"################################",
"################################",
"################################"
};
