/* XPM */
static char *result[] = {
/* columns rows colors chars-per-pixel */
"32 32 8 1 ",
"  c #7C5426",
". c #935C2D",
"X c #A36B2D",
"o c #B27335",
"O c #C27B3D",
"+ c #B29264",
"@ c #F09A5C",
"# c None",
/* pixels */
"################################",
"################################",
"################################",
"############       #############",
"########### ooooooo ############",
"########## oOOOOOOOo ###########",
"######### oOOOOOOOOOo ##########",
"######## oOOOOO OOOOo ##########",
"####### oOOOOOO OOOOOo #########",
"####### oOOOOOOO OOOOOo ########",
"###### oOOOOOO O  OOOOOo #######",
"##### oOOOOOOOO OOOOOOOOo ######",
"##### ooooooOOOOOOOoooOOOo #####",
"#### oo     oOOOOOo   oooo #####",
"####   ####  ooooo  #      #####",
"########### o     oo ###########",
"########### OoooooOOo ##########",
"########### oOOOOOOOo ##########",
"############ oOOOOOOo ##########",
"############ oOOOOOOo ##########",
"############ ooOOOOo ###########",
"############# XXOOXX############",
"##############..oO.O ###########",
"############### oo+@ ###########",
"################oo+@ ###########",
"################oo .############",
"############### o.##############",
"############## o ###############",
"##############.#################",
"############# ##################",
"################################",
"################################"
};
