/* XPM */
static char *result[] = {
/* columns rows colors chars-per-pixel */
"32 32 13 1 ",
"  c black",
". c #5D3D1E",
"X c #7C5426",
"o c #935C2D",
"O c #A36B2D",
"+ c #B27335",
"@ c #C27B3D",
"# c #B29264",
"$ c #F09A5C",
"% c #F0C1A9",
"& c #F0E7C1",
"* c #F0EFEF",
"= c None",
/* pixels */
"================================",
"================================",
"========XXX====X================",
"=======X$@@X==X======XXX========",
"======X$%$@X=X+X====X@@$X=======",
"======$%%$+XXXX+XX=XO+$%$X======",
"======%%%$+XXXoooooXo$%%%$======",
"======%%%$++X++++++oo$%%%%======",
"======%%%$++@@@@@@@+o$%%%%======",
"======%X%$+@@ @@@@ @++$%X%======",
"======%%X$+ @@@@@@@+@+$X%=======",
"=======%%$+@ o@@@@@@ +$$%=======",
"=======%$X+Oo&#@@#& @+$%%=======",
"========%o+@#**@@**#++$%========",
"=========o++#**++**#O+o=========",
"==========o@+* O+ *#+o==========",
"=========Xo@+O.oo.O+@X==========",
"=========O@o@+O%%+O@oo==========",
"=========X@@oo%  %oX@O==========",
"=========X@O#o####oooo==========",
"=========XX+&&&&&%o@@X==========",
"===========X#&&&&X+@@o==========",
"=============#%%#.X@@+X=========",
"===============X..oXXo==========",
"================.X..X===========",
"================.++OXX==========",
"================.@+O@X==========",
"================o@+@@X==========",
"=================+OOo===========",
"================================",
"================================",
"================================"
};
