/* XPM */
static char *result[] = {
/* columns rows colors chars-per-pixel */
"32 32 13 1 ",
"  c black",
". c #5D3D1E",
"X c #7C5426",
"o c #935C2D",
"O c #A36B2D",
"+ c #B27335",
"@ c #C27B3D",
"# c #B29264",
"$ c #F09A5C",
"% c #F0C1A9",
"& c #F0E7C1",
"* c #F0EFEF",
"= c None",
/* pixels */
"================================",
"================================",
"================================",
"==========XXX===X===============",
"=========X$@@X==X=====XXXX======",
"=========$%$@X=X+X===X@@$$X=====",
"=========%%$+XXXX+XX=X@$$%$=====",
"=========%%$+XXXoooooXo$%%%=====",
"=========%%$++X++++++oo$%%%=====",
"=========%%$++@@@@@@@+o+$%%=====",
"=========X%$+@@ @@@@ @++$%X=====",
"=========%X$+ @@@@@@@+@+$X%=====",
"=========%%$+@ o@@@@@@ +$$======",
"=========%$X+Oo&#@@#& @+$%======",
"==========%o+@#**@@**#++o=======",
"===========o++#**++**#O+o=======",
"============o@+* O+ *#+o========",
"============o@+O.oo.O+@X========",
"=============o@+O%%+O@oo.=======",
"===========Xo@oo%  %oX@@X=======",
"===========O@@@o####o@o+o=======",
"==========X+@@O@@@@@@@+oo=======",
"==========Xo@o#&&&&%X@@+X=======",
"===========Xo.@%&&&#X+@o========",
"============XX+.#%#==XX=========",
"============.OO..X==============",
"============.@@.================",
"============.@@X================",
"=============XX=================",
"================================",
"================================",
"================================"
};
