/* XPM */
static char *result[] = {
/* columns rows colors chars-per-pixel */
"32 32 102 2 ",
"   c #050403",
".  c #060402",
"X  c #070402",
"o  c #080402",
"O  c #080502",
"+  c #090502",
"@  c #080503",
"#  c #090603",
"$  c #0A0603",
"%  c #0B0603",
"&  c #0B0703",
"*  c #0C0704",
"=  c #100904",
"-  c #100905",
";  c #100A04",
":  c #120B05",
">  c #130B05",
",  c #301C0D",
"<  c #351F0E",
"1  c #361F0E",
"2  c #37200F",
"3  c #38210F",
"4  c #292019",
"5  c #29231F",
"6  c #2A231E",
"7  c #372415",
"8  c #3B2310",
"9  c #3C2310",
"0  c #3D2310",
"q  c #3A2413",
"w  c #3D2411",
"e  c #3E2411",
"r  c #3F2411",
"t  c #3E2511",
"y  c #3F2511",
"u  c #3D2513",
"i  c #3F2512",
"p  c #382414",
"a  c #3B2615",
"s  c #3C2514",
"d  c #2B2622",
"f  c #2D2723",
"g  c #2E2823",
"h  c #302821",
"j  c #362A22",
"k  c #302924",
"l  c #312A24",
"z  c #402511",
"x  c #402611",
"c  c #402612",
"v  c #412612",
"b  c #422612",
"n  c #422712",
"m  c #432712",
"M  c #432713",
"N  c #402714",
"B  c #432813",
"V  c #442813",
"C  c #452813",
"Z  c #442913",
"A  c #462913",
"S  c #462A13",
"D  c #472A13",
"F  c #412917",
"G  c #472A15",
"H  c #452B16",
"J  c #462B16",
"K  c #482A13",
"L  c #482B13",
"P  c #482B14",
"I  c #492B14",
"U  c #4A2C14",
"Y  c #4B2C14",
"T  c #4A2C15",
"R  c #4B2D15",
"E  c #4C2D15",
"W  c #4D2D15",
"Q  c #4D2E15",
"!  c #4E2E15",
"~  c #4C2D17",
"^  c #4C2E17",
"/  c #4E2E16",
"(  c #4E2F16",
")  c #4F2F16",
"_  c #4E2E17",
"`  c #4E311C",
"'  c #523118",
"]  c #533118",
"[  c #533119",
"{  c #533218",
"}  c #533219",
"|  c #51321B",
" . c #52321B",
".. c #543219",
"X. c #553219",
"o. c #56331A",
"O. c #57331A",
"+. c #56341A",
"@. c #57341A",
"#. c #51331D",
"$. c #58351A",
"%. c #f0a9b1",
/* pixels */
"%.%.%.%.%.%.%.%.%.%.%.%.%.%.%.%.%.%.%.%.%.%.%.%.%.%.%.%.%.%.%.%.",
"%.%.%.%.%.%.%.%.%.%.%.%.%.%.%.%.%.%.%.%.%.%.%.%.%.%.%.%.%.%.%.%.",
"%.%.%.%.%.%.%.%.%.%.%.%.+ # & * * & # + %.%.%.%.%.%.%.%.%.%.%.%.",
"%.%.%.%.%.%.%.%.%.%.O : t n ~ _ _ ~ n t : O %.%.%.%.%.%.%.%.%.%.",
"%.%.%.%.%.%.%.%.O = i _ [ x r y z y x [ _ i = O %.%.%.%.%.%.%.%.",
"%.%.%.%.%.%.%.O 8 S ' b y A A D E E P x n ' S 8 O %.%.%.%.%.%.%.",
"%.%.%.%.%.%.%.; S { n C D U / ( ) ) ( E K m { S ; %.%.%.%.%.%.%.",
"%.%.%.%.%.%.+ t X.v A U W ! ) ) ) ) ) ) / D v X.t + %.%.%.%.%.%.",
"%.%.%.%.%.%.+ Z @.e A Y Q ! ) ) ) ) ) ) ) I e @.Z + %.%.%.%.%.%.",
"%.%.%.%.%.%.+ n @.v A E Q Q ! ) ) ) ) ) / D b @.n + %.%.%.%.%.%.",
"%.%.%.%.%.%.X 2 @.o.M U P Y Q / ) ) ( E K m o.@.2 X %.%.%.%.%.%.",
"%.%.%.%.%.%.X < T $...n y A A D E E L z v ..@.T < X %.%.%.%.%.%.",
"%.%.%.%.%.%.+ y v I R } } v e y y y b } } U e z y + %.%.%.%.%.%.",
"%.%.%.%.%.%.+ B ..e 0 v T [ ........[ T v 9 0 ..B + %.%.%.%.%.%.",
"%.%.%.%.%.%.+ V @.e P [ e e c w w c e e [ P e @.V + %.%.%.%.%.%.",
"%.%.%.%.%.%.@ N +.y U +.e P ] 9 9 ] P e +.U y +.N @ %.%.%.%.%.%.",
"%.%.%.%.%.%.  4 ` e U @.y U @.0 0 @.U y @.U e ` 4   %.%.%.%.%.%.",
"%.%.%.%.%.%.+ a j p J | e U @.0 0 @.U e | J p j a + %.%.%.%.%.%.",
"%.%.%.%.%.%.+ B #.h 5 g 7 J | q q | J 7 g 5 h #.B + %.%.%.%.%.%.",
"%.%.%.%.%.%.+ V @.u F k d 6 l f f l 6 d k F u @.V + %.%.%.%.%.%.",
"%.%.%.%.%.%.+ V @.y U  .s H | q q | H s  .U y @.V + %.%.%.%.%.%.",
"%.%.%.%.%.%.@ N +.y U O.y U @.0 0 @.U y O.U y +.N @ %.%.%.%.%.%.",
"%.%.%.%.%.%.  4 ` e U @.y U o.0 0 o.U y @.U e ` 4   %.%.%.%.%.%.",
"%.%.%.%.%.%.+ a j p J | e U @.0 0 @.U e | J p j a + %.%.%.%.%.%.",
"%.%.%.%.%.%.+ B #.h 5 g 7 J | q q | J 7 g 5 h #.B + %.%.%.%.%.%.",
"%.%.%.%.%.%.+ V @.u F k d 6 l f f l 6 d k F u @.V + %.%.%.%.%.%.",
"%.%.%.%.%.%.+ V @.y U  .s H | q q | H s  .U y @.V + %.%.%.%.%.%.",
"%.%.%.%.%.%.+ t o.y U O.y U @.0 0 @.U y O.U y o.t + %.%.%.%.%.%.",
"%.%.%.%.%.%.%.> G e Y o.y U o.0 0 o.U y o.Y e G > %.%.%.%.%.%.%.",
"%.%.%.%.%.%.%.%.- , B o.y Y @.w w @.Y y o.B , - %.%.%.%.%.%.%.%.",
"%.%.%.%.%.%.%.%.%.. : G 3 n ^ 1 1 ^ n 3 G : . %.%.%.%.%.%.%.%.%.",
"%.%.%.%.%.%.%.%.%.%.%.$ o + % X X % + o $ %.%.%.%.%.%.%.%.%.%.%."
};
