/* XPM */
static char *result[] = {
/* columns rows colors chars-per-pixel */
"32 32 75 1 ",
"  c #656464",
". c #7B7A7A",
"X c #837C78",
"o c #917472",
"O c #A17E79",
"+ c #858484",
"@ c #888787",
"# c #8D8C8C",
"$ c #948686",
"% c #948788",
"& c #928C8D",
"* c #9A898B",
"= c #959494",
"- c #999595",
"; c #9B9A9A",
": c #AA8B87",
"> c #A38B8E",
", c #AC8D89",
"< c #AD8F92",
"1 c #A99396",
"2 c #A79897",
"3 c #A09F9F",
"4 c #AD9C9C",
"5 c #B29094",
"6 c #B89397",
"7 c #B29598",
"8 c #BE9599",
"9 c #B09A9D",
"0 c #A4A3A3",
"q c #A8A7A7",
"w c #ACABAB",
"e c #B0AFAF",
"r c #BBB4A4",
"t c #B4B3B3",
"y c #BAB7B7",
"u c #BAB9B9",
"i c #C4979C",
"p c #C6989D",
"a c #C0B09E",
"s c #CF9BA1",
"d c #D29CA2",
"f c #DB9FA6",
"g c #D6A7A6",
"h c #D9A1A7",
"j c #D8AFAE",
"k c #C6B7A7",
"l c #C7B9A9",
"z c #D9B0AF",
"x c #C2BDBD",
"c c #D9BFB0",
"v c #E4A4AB",
"b c #EAA7AE",
"n c #F0A7AF",
"m c #EEA9B0",
"M c #F0A9B1",
"N c #DDC6B9",
"B c #C4C3C3",
"V c #C9C5C5",
"C c #CCCBCB",
"Z c #D2CFCF",
"A c #DCCBCA",
"S c #DBCFD1",
"D c #D4D3D3",
"F c #D8D7D7",
"G c #DCDBDB",
"H c #E2D4D3",
"J c #E3DDDD",
"K c #F2DBDD",
"L c #E0E0DF",
"P c #E3E3E3",
"I c #EBE4E2",
"U c #ECE8E7",
"Y c #ECEBEB",
"T c #F0EFEF",
"R c #F2F2F2",
/* pixels */
"*14>8vmMMMMMMnMIPu#%hcaO7VYDyy;.",
".;t0=*svMMMMMnMKPu#-HTUJVVYDyy;.",
".-xGDw#*8vMMMnMKPu#-HYUJVVYDuu;.",
".-xYTYDt=*6fnMMKLu#*jNk,4CPDuu=.",
".=BYRYFDDt=%6fMKPy#;JTYKCBPDuu;.",
".=BPRP=;CGDy;%9DLu#=HIIHBBYDyu;.",
".=xPRL=qYGDDDu;=3w#%jNl,4CYDuu=.",
".=BYRL=qTRYLDDFu3@.;JTTUCBYDyu;.",
".=BPRP=qYRRRYLDFDB;=qZPAxVUDuu;.",
".;BPRP=qYRTTTTYLDDFB3-@o2CYDuu;.",
".=BPRP=qYRTTTTTRYPFDFBq@#ePDuu;.",
".=BYRL=qYRTTTTTTTRTPDDFCq=;wtt;.",
".=BPRP=qYRTTRYTTTTTRTPFFFCw=#3&.",
".=BPRP=qTRTTTRTTTTTTTTTPFDFCt=+.",
".=BPRP=qYRRTTTTTTTTTTTTRTYFCCt=.",
".;BPRY=qTRYRTTTTTTTTTTRYVwwwwe@ ",
".=BPRL=qTRTTTTTTTTTTTTRTC0=##=+.",
".=xPRL=qPRTTTTTTTTTTTTTTRTYLDZBt",
"1>#eDUGBeCPRTTTTTTTTTTTTTTTTRRFu",
"Mvs*=wZPLBtVPRTTTTTTTTTTTTTTRYDy",
"MMMvs*#qCPLBtBLTRTTTTTTTTTTTRRDu",
"MMMMMbs*#qCPLCeBGTRTTTTTTTTRTYDu",
"MMMMMMMbs>#0VLPVtxLTTTTTTTRYRRDt",
"MMMMMMMMMbs>%3BLPCtuGTTTTTRYTYDu",
"mMMMMMmMMMMMd<#3xLPDtuDTRTRYRTDu",
"MmMMMMMMMMMMMbh9=;uGUZytFYRYRTDu",
"MmMMMMMMMMMMMMMKD;#=yGPFttDYRYDt",
"MMMMMMMMMMmMMMMKPu&.#;tFYFtuCYFu",
"MMMMnmMMMmMmMMMKLu#=Zy;=eDPFBtwt",
"nMMMMMMMMMMMMMMKLu#&zNrX.&tDPLw+",
"MMmMMMMMMmMMMMMKLu#;HUIFxq==wDw.",
"MMnMMMMnMMMMMMMKLu#;URTRCBPt##+."
};
