/* XPM */
static char *result[] = {
/* columns rows colors chars-per-pixel */
"32 32 204 2 ",
"   c #272727",
".  c #2C2C2C",
"X  c #323232",
"o  c #3B3B3B",
"O  c #3B3937",
"+  c #523417",
"@  c #473A2D",
"#  c #5B3E23",
"$  c #564A3D",
"%  c #5A452E",
"&  c #684320",
"*  c #714922",
"=  c #7C5222",
"-  c #775C3E",
";  c #3F3F40",
":  c #444343",
">  c #4A4A4A",
",  c #535353",
"<  c #5B5B5B",
"1  c #5A5748",
"2  c #6F5F4D",
"3  c #765D44",
"4  c #706053",
"5  c #656565",
"6  c #6C6B6B",
"7  c #767575",
"8  c #7F7E7E",
"9  c #875727",
"0  c #805934",
"q  c #93612C",
"w  c #9A632A",
"e  c #9C652B",
"r  c #8B6538",
"t  c #926534",
"y  c #9C6D3B",
"u  c #996835",
"i  c #A1672C",
"p  c #A4692E",
"a  c #AA6D2F",
"s  c #A46B33",
"d  c #AB6E31",
"f  c #A26E3B",
"g  c #B16F32",
"h  c #AE733B",
"j  c #AA7239",
"k  c #B27234",
"l  c #BB7637",
"z  c #B5743A",
"x  c #BA7739",
"c  c #BE793B",
"v  c #C27A3B",
"b  c #896B48",
"n  c #936D44",
"m  c #94714A",
"M  c #9C7548",
"N  c #9C7952",
"B  c #9C7E5D",
"V  c #89755F",
"C  c #A27B4E",
"Z  c #BA7C44",
"A  c #B77940",
"S  c #A37F59",
"D  c #A37D54",
"F  c #917A6E",
"G  c #C57F48",
"H  c #C97866",
"J  c #CA803F",
"K  c #BA844F",
"L  c #A6825D",
"P  c #BF8350",
"I  c #B0835C",
"U  c #988876",
"Y  c #9F977E",
"T  c #9E8466",
"R  c #A18564",
"E  c #AC8A67",
"W  c #A4896A",
"Q  c #A38769",
"!  c #AE9167",
"~  c #AC9275",
"^  c #AC957B",
"/  c #BD9472",
"(  c #B3997E",
")  c #B79669",
"_  c #BAA379",
"`  c #C58042",
"'  c #C78956",
"]  c #D88957",
"[  c #D2905E",
"{  c #C89562",
"}  c #D39768",
"|  c #CC9E7E",
" . c #D09C76",
".. c #E6836E",
"X. c #C7A37F",
"o. c #D5A171",
"O. c #E8A77D",
"+. c #838383",
"@. c #8B8B8B",
"#. c #888787",
"$. c #9D9D9C",
"%. c #939292",
"&. c #B39E86",
"*. c #B49F88",
"=. c #A09F9F",
"-. c #B8A28B",
";. c #BCA492",
":. c #BEAE9C",
">. c #BAAA92",
",. c #A4A3A3",
"<. c #ABAAAA",
"1. c #B0AFAF",
"2. c #B5B1AD",
"3. c #B4B3B3",
"4. c #B8B7B7",
"5. c #BFBEBE",
"6. c #D5AA86",
"7. c #DDA987",
"8. c #C0AB96",
"9. c #DFB395",
"0. c #CBAE86",
"q. c #EBB99A",
"w. c #E0B196",
"e. c #F1B693",
"r. c #F2BA9B",
"t. c #FCB99D",
"y. c #F3B48C",
"u. c #C4B5A4",
"i. c #CBBCAB",
"p. c #C9BBA5",
"a. c #DDB1A5",
"s. c #C0BFBF",
"d. c #D0BDB4",
"f. c #ECBCA3",
"g. c #E8B7A0",
"h. c #F1BFA4",
"j. c #CBC3A6",
"k. c #CCC2BA",
"l. c #D2C8BD",
"z. c #E4C5AA",
"x. c #EEC4A9",
"c. c #EBCCAC",
"v. c #E7C7A7",
"b. c #F0C0A7",
"n. c #F2C3AB",
"m. c #F1C9AA",
"M. c #E8D6AD",
"N. c #E3D5AC",
"B. c #EACDB8",
"V. c #F5CEBC",
"C. c #F6C8B8",
"Z. c #EEDABD",
"A. c #F0D2B4",
"S. c #F2D8BC",
"D. c #ECE1BA",
"F. c #F1E1BE",
"G. c #C5C4C4",
"H. c #CDCCCC",
"J. c #CFC6C1",
"K. c #D6CDC3",
"L. c #D0CFCF",
"P. c #DBD3CA",
"I. c #D5D1CE",
"U. c #D4D3D3",
"Y. c #DCDBDB",
"T. c #DBD7D4",
"R. c #E0CDC1",
"E. c #E7D6C2",
"W. c #E9D9C6",
"Q. c #E8DDC9",
"!. c #F2D3C4",
"~. c #F6DDC6",
"^. c #F4DACD",
"/. c #F0D6C9",
"(. c #E2DCD7",
"). c #F2DDD2",
"_. c #F0E7C1",
"`. c #F2EAC3",
"'. c #F0EACC",
"]. c #FAE5CC",
"[. c #EEEADC",
"{. c #E9E4DA",
"}. c #F5E5D2",
"|. c #F1EAD1",
" X c #FFEAD5",
".X c #F1ECDC",
"XX c #FFE1D2",
"oX c #FDF2DB",
"OX c #F7F1DA",
"+X c #EDE3CA",
"@X c #E6E5E5",
"#X c #E8E7E7",
"$X c #EBE8E7",
"%X c #EDECEB",
"&X c #F0EBE5",
"*X c #F0EFEF",
"=X c #FCF5E4",
"-X c #F2F2EC",
";X c #F8F7E4",
":X c #F0EFF0",
">X c #F3F2F3",
",X c #F6F7F8",
"<X c #FAFAFB",
"1X c None",
/* pixels */
"1X1X1X1X1X1X1X1X..H +X[.#X> 2.@ +.Y.>X$X'.q.1X1X1X1X1X1X1X1X1X1X",
"1X1X1X1X1X1X1X/ _ }.>X:X#XO V $ . 3.>X-X>Xp.! ] 1X1X1X1X1X1X1X1X",
"1X1X1X1X1Xr./ P G ( %X:X#X3 9 2 $.Y.>X>Xi.u Z o.W.1X1X1X1X1X1X1X",
"1X1X1X1Xx.-Xz.O.r.' &.:X~ s l f N k.$Xl.f ] e.e.m.W.1X1X1X1X1X1X",
"1X1X1Xf.-X:X).b.n.w.E U * l v c g # 3 *.h y.n.f.!.-XW.1X1X1X1X1X",
"1X1XC.-X:X:X).b.n.h.[ & & g l v } = + q P r.x.b.!.,X>X}.1X1X1X1X",
"1X1X;X:X:X>X).b.n.n.o.v = *.7.v z.$.A c } n.x.n.;.6 H.>X X1X1X1X",
"1XA.-X8 s.> U n.h.h.7.l G P.4 v 3 G.' x  ./ 9.C.k.$.5 Y.Q.1X1X1X",
"Z.-X>X> ,.: d.q.g.I  .c c l.@ ` # 3.' x s ' q.V.,.O . U.>XoX1X1X",
"'.*X>X> ,.o 5 F n.} s c f j.j.9 8.K.y i Z e.n.^.#., 1.#X>X&X X1X",
"|.*X:X%.G.5 < 4.).h.} a c ) j.1 >.N g s 6.C./.-X4.< 5 Y.>X:X[.1X",
":X*X*X>X>X>X,X>X*X).R.L w M.F.`._.X.n i.).#X:X>X>X>X>X:X%X-X>X|.",
"%X#X@X%X:X%Xi.B P.&X*X*.= / D.Z.S.X.r L u.%X{.R >.%X%X$X@X#X:X'.",
"s.X X 1.R.m y d n n n f d t { M.M.L p a y n n a f n u., X +.,X'.",
"4.; > =.^ s d i g g k l v z d K A k c c l d d i a p D I.6 6 >X'.",
"L.5 . <.&XE M ^ y w w w e x ) o.6.K e e w w e ~ L D (.@X> 6 ,X'.",
"*X<X6 ,.,X(.K.,Xi.8.8.2.m h x.F.A.' = n 2.8.u.-X(.P.:X7 : 6 ,X'.",
"*X>XL.Y.*X*X>X*X,X,X>X,XQ z c._.A.7.n P.>X>X>X*X:X:X&X3.1.H.*X'.",
"*X*X>X>X>X,X>X*X%X>X%X>XQ 6.F._.A.f.N {.*X*X*X*X>X*X>X>X>X>X*X'.",
"&X*X*X%X4.,.H.-X>X%X>XT.L 9._._._.v.j Q >X*X*X>XU.U.G.@X*X:X-XoX",
"'.*X*X$XX : 5 >X*X*X>X*.s q._._._.c.h T >X*X-X,X@.#., H.>X&X}.1X",
"'.*X%X$XX o 6 ,X*X*X>X-.p q._._.F.x.h R >X*X%X,X%..   U.>X.X1X1X",
"1X[.:X$XO 5 5 ,X:X:X>X*.i ' v.D.M.I p Q >X>X%X>XY.3.o H.-X X1X1X",
"1XoX:X$X: X 8 ,X>X>X,X:.f l t r t h s W H.G.#X*X>X>X5 U..X1X1X1X",
"1X1XB.*X$X#X%X*X3.=.,.H.R g s q c c m $.  < U.>X*X*X%X{.XX1X1X1X",
"1X1Xt.-X:X*X*X*X#.6 ; 7 i.y e q l s >.$.o #.Y.:X*X*X-XoX1X1X1X1X",
"1X1X1X~.-X*X*X*X>XY.7 G.-Xm s q l t {.U.%.X k.>X*X:X=X1X1X1X1X1X",
"1X1X1X1X~.-X*X*X@X< G.:X( 9 s q G 9 W 3.:   G.>X-X;X1X1X1X1X1X1X",
"1X1X1X1X1X XW.-X@X< >X>.e e q = a i w T Y.Y.%X[.=X1X1X1X1X1X1X1X",
"1X1X1X1X1X1X1X|.-X%X>Xp.T B % $ b Q T -.>X>X.X1X1X1X1X1X1X1X1X1X",
"1X1X1X1X1X1X1X1XXX;X,X>X>XU.  ; #.<X-X;X;X=X1X1X1X1X1X1X1X1X1X1X",
"1X1X1X1X1X1X1X1X1X1XC.a.|.Q.&.U j.|.+XV.1X1X1X1X1X1X1X1X1X1X1X1X"
};
