/* XPM */
static char *result[] = {
/* columns rows colors chars-per-pixel */
"32 32 162 2 ",
"   c #010203",
".  c #06070A",
"X  c #07080C",
"o  c #0A0A0C",
"O  c #060C10",
"+  c #0C0D11",
"@  c #0F1011",
"#  c #04151C",
"$  c #02181F",
"%  c #111111",
"&  c #121419",
"*  c #191B1C",
"=  c #021C22",
"-  c #0A1C20",
";  c #1A1D2C",
":  c #191C25",
">  c #0A2228",
",  c #19202F",
"<  c #062732",
"1  c #062C38",
"2  c #1E2233",
"3  c #222627",
"4  c #212534",
"5  c #242A3D",
"6  c #2E3233",
"7  c #34363B",
"8  c #3A3C3E",
"9  c #013540",
"0  c #033E4C",
"q  c #033A46",
"w  c #272C42",
"e  c #2F3344",
"r  c #2D334C",
"t  c #3D3F42",
"y  c #32374A",
"u  c #34394D",
"i  c #323542",
"p  c #303753",
"a  c #323A55",
"s  c #393F57",
"d  c #353D5C",
"f  c #00414F",
"g  c #024555",
"h  c #004857",
"j  c #034A5B",
"k  c #3A4057",
"l  c #064E62",
"z  c #0A4E63",
"x  c #0E5066",
"c  c #3A4365",
"v  c #3C4669",
"b  c #404142",
"n  c #43464B",
"m  c #4B4C4C",
"M  c #4E5157",
"N  c #4F525A",
"B  c #545557",
"V  c gray36",
"C  c #4D536C",
"Z  c #434D73",
"A  c #4F5775",
"S  c #465179",
"D  c #515875",
"F  c #5D6068",
"G  c #6A6A6A",
"H  c #696D74",
"J  c #6A6F78",
"K  c #6D7179",
"L  c #747474",
"P  c #797979",
"I  c #306186",
"U  c #37658D",
"Y  c #3B6790",
"T  c #4D5986",
"R  c #525E8D",
"E  c #5B6385",
"W  c #416A96",
"Q  c #586597",
"!  c #56679A",
"~  c #5A6799",
"^  c #57699C",
"/  c #5C6A9F",
"(  c #777C86",
")  c #797D85",
"_  c #797E89",
"`  c #687195",
"'  c #5C6DA2",
"]  c #5A70A5",
"[  c #6978AF",
"{  c #6775AB",
"}  c #727DA6",
"|  c #6776B1",
" . c #6A79B5",
".. c #6D7EBC",
"X. c #6679B4",
"o. c #7D818A",
"O. c #7C87B4",
"+. c #7282BE",
"@. c #6E82C2",
"#. c #7282C3",
"$. c #7486C9",
"%. c #7A8BCD",
"&. c #7C8DD0",
"*. c #858586",
"=. c gray54",
"-. c #8C919B",
";. c #929192",
":. c #979DA9",
">. c #989EA9",
",. c #A2A3A4",
"<. c #A3A9B4",
"1. c #B2B2B4",
"2. c #828FC1",
"3. c #8A97C9",
"4. c #8B98CD",
"5. c #8591C1",
"6. c #8F9DD6",
"7. c #8495D5",
"8. c #AFB5C1",
"9. c #B6BDCC",
"0. c #9EAEEC",
"q. c #9AA9E5",
"w. c #9EAEF0",
"e. c #A2B1EE",
"r. c #A5B5F3",
"t. c #A8B7F5",
"y. c #A9B9F6",
"u. c #A7B7F8",
"i. c #ABBBFB",
"p. c #BAC0CD",
"a. c #B9C0D0",
"s. c #AFC0FF",
"d. c #B8C5F6",
"f. c #B1C1FF",
"g. c #BBC9FB",
"h. c #C1C1C1",
"j. c #CDCDCD",
"k. c #C3CBD9",
"l. c gray85",
"z. c #D5DCEB",
"x. c #C1CDFB",
"c. c #C6D1FC",
"v. c #D9E0EE",
"b. c #DEE5F6",
"n. c #D7E0FA",
"m. c #D9E3FA",
"M. c #DFE8FA",
"N. c #E3E3E4",
"B. c #E0E3EF",
"V. c #EFEFEF",
"C. c #EEEFF3",
"Z. c #E2EAFA",
"A. c #E9EEF8",
"S. c #E3E8F5",
"D. c #EEF0F7",
"F. c #E7F0FF",
"G. c #EBF3FF",
"H. c #F5F5F6",
"J. c #F4F6F9",
"K. c #F5F8FC",
"L. c #FCFCFC",
"P. c None",
/* pixels */
"P.P.P.P.P.P.P.P.P.P.P.P.P.P.P.P.P.P.P.P.P.P.P.P.P.P.P.P.P.P.P.P.",
"P.P.P.P.P.P.P.P.  . . X X X X X .     . X X X X     P.P.P.P.P.P.",
"P.P.P.P.P.P.P.P.X c  .#...+... .T ; w / +...#. .a . P.P.P.P.P.P.",
"P.P.P.P.P.P.P.P.+ E r.f.i.i.3.u e O.e.y.i.y.f.e.D . P.P.P.P.P.P.",
"P.P.P.P.P.P.P.P.% ) b.F.Z.A.n.d.O.e B 9.Z.Z.F.z.H o P.P.P.P.P.P.",
"P.P.P.P.P.P.P.P.% *.H.L.K.J.L.J.C.z.-.7 G N.L.V.L X P.P.P.P.P.P.",
"P.P.P.P.P.P.P.P.% *.J.L.L.L.J.A.<.8 B j.H.J.L.V.L o P.P.P.P.P.P.",
"P.P.P.P.P.P.P.P.% =.H.L.J.A.8.n m h.H.L.L.L.L.H.L o P.P.P.P.P.P.",
"P.P.P.P.P.P.P.P.% *.H.L.l.V 8 >.v.J.L.L.L.L.L.V.L o P.P.P.P.P.P.",
"P.P.P.P.P.P.P.  % *.J.L.L.H.h.m n 8.D.J.L.L.L.V.L . P.P.P.P.P.P.",
"P.P.P.P.P.P.o   % =.H.L.L.L.L.H.1.b M p.D.J.L.H.P .   o P.P.P.P.",
"P.P.P.P.  G 9.J * *.J.L.L.J.L.J.D.z.-.7 G N.L.V.L * ) 9.N   P.P.",
"P.P.P.P.  a [ c & o.M.G.Z.A.n.d.O.i N p.Z.Z.G.v.H & Z { e   P.P.",
"P.P.P.P.  r ' d & ) M.G.m.g.%.p n 1.Z.Z.Z.Z.G.b.H & v / w   P.P.",
"P.P.P.P.    X   % o.B.K.k.N 7 :.z.M.Z.Z.Z.Z.G.v.J .   .     P.P.",
"P.P.P.P.P.P.P.  % ) b.G.m.g.:.r k 1.Z.Z.Z.A.G.z.H o P.P.P.P.P.P.",
"P.P.P.P.P.P.P.P.% ) b.G.n.g.0.7.E 2 N a.Z.M.A.z.J . P.P.P.P.P.P.",
"P.P.P.P.P.P.P.P.+ E y.f.i.i.u.u.q.+.S 2 C q.g.r.A . P.P.P.P.P.P.",
"P.P.P.P.P.P.P.P.+ E u.i.i.i.0.&.E 4 k 4.i.i.i.w.A . P.P.P.P.P.P.",
"P.P.P.P.P.P.P.P.+ E u.i.r.7.~ 5 y %.y.y.i.i.f.r.A . P.P.P.P.P.P.",
"P.P.P.P.P.P.P.P.+ E r.i.6.s 5 } 0.r.u.u.u.u.i.0.A . P.P.P.P.P.P.",
"P.P.P.P.P.P.P.P.X v #.%.#.@.Q 5 5 ^ #.#.$.$.%...d . P.P.P.P.P.P.",
"P.P.P.P.P.P.P.P.X c @.$.@.#.#.#.R 2 w ' #.#.$...d . P.P.P.P.P.P.",
"P.P.P.P.P.P.P.P.X Z ..$.#.#.#.#.+.X.S ; p | %. .a . P.P.P.P.P.P.",
"P.P.P.P.P.P.P.P.X c ..@.+.+.....R , 5 ^ ....@. .a . P.P.P.P.P.P.",
"P.P.P.P.P.P.P.. X 1 j l j l 0 $ # 9 g j j l l j < X P.P.P.P.P.P.",
"P.P.P.P.P.P.+ d ] I j h j g q - o @ > f j j h j U ' p O P.P.P.P.",
"P.P.P.P.  r ' Y z h j h 0 = 8 1.H.D.,.6 = 0 h j j x Y ^ w   P.P.",
"P.P.P.P.  = g g g h 0 # 3 ,.B.x.i.i.c.B.;.* = 0 g g j 0 $   P.P.",
"P.P.P.P.    .     .     : } r.r.0.e.e.e.` &   .   .   .     P.P.",
"P.P.P.P.P.P.P.P.P.P.P.P.P.o + + o + o o X P.P.P.P.P.P.P.P.P.P.P.",
"P.P.P.P.P.P.P.P.P.P.P.P.P.P.P.P.P.P.P.P.P.P.P.P.P.P.P.P.P.P.P.P."
};
