/* XPM */
static char *result[] = {
/* columns rows colors chars-per-pixel */
"32 32 242 2 ",
"   c black",
".  c #010101",
"X  c #010102",
"o  c #010202",
"O  c #020203",
"+  c gray1",
"@  c #020304",
"#  c #030305",
"$  c #040404",
"%  c #070707",
"&  c #06070C",
"*  c #07080B",
"=  c #00090F",
"-  c #090A0D",
";  c #0D0D0F",
":  c #0D0E0F",
">  c #000E12",
",  c #0A0B10",
"<  c #00171B",
"1  c #00171C",
"2  c #081518",
"3  c #091619",
"4  c #121314",
"5  c #101116",
"6  c #151617",
"7  c #13151A",
"8  c #151418",
"9  c #18171B",
"0  c #17181D",
"q  c #1A1B1C",
"w  c #1A1B1D",
"e  c #191A1E",
"r  c #031B25",
"t  c #071F29",
"y  c #181A23",
"u  c #1C1F28",
"i  c #1C1F2A",
"p  c #00262F",
"a  c #1E2531",
"s  c #242527",
"d  c #262627",
"f  c #202331",
"g  c #202537",
"h  c #252834",
"j  c #212639",
"k  c #2A2E3F",
"l  c #303235",
"z  c #313235",
"x  c #323437",
"c  c #333437",
"v  c #363737",
"b  c #373737",
"n  c #3E3D3A",
"m  c #1C2F48",
"M  c #222740",
"N  c #272E48",
"B  c #293047",
"V  c #2F3244",
"C  c #2F3345",
"Z  c #2C334E",
"A  c #3B3F41",
"S  c #3D3E41",
"D  c #303752",
"F  c #313956",
"G  c #313A5C",
"H  c #004354",
"J  c #004455",
"K  c #004555",
"L  c #004655",
"P  c #004959",
"I  c #004A5A",
"U  c #044C5C",
"Y  c #3C4042",
"T  c #2C4851",
"R  c #3B4056",
"E  c #3C4158",
"W  c #075161",
"Q  c #384161",
"!  c #3B4466",
"~  c #3C4568",
"^  c #215560",
"/  c #3A727E",
"(  c #3E717F",
")  c #4C4D4E",
"_  c #50504F",
"`  c #49545B",
"'  c #505359",
"]  c #575A5F",
"[  c #474D68",
"{  c #474E68",
"}  c #595C60",
"|  c #5B5D61",
" . c #51586D",
".. c #424C72",
"X. c #424E79",
"o. c #4C5476",
"O. c #6F6E6C",
"+. c #686C73",
"@. c #6B6E75",
"#. c #747270",
"$. c #82807D",
"%. c #4E5A88",
"&. c #4A7D8F",
"*. c #536091",
"=. c #556294",
"-. c #566394",
";. c #596699",
":. c #5C6A9E",
">. c #636E99",
",. c #65709B",
"<. c #5D6BA2",
"1. c #616FA7",
"2. c #6D77A2",
"3. c #6874A4",
"4. c #6372AA",
"5. c #6C7DC0",
"6. c #6D7EC1",
"7. c #51828D",
"8. c #51848F",
"9. c #60858D",
"0. c #758283",
"q. c #6B959E",
"w. c #7A919D",
"e. c #7380AE",
"r. c #7781AD",
"t. c #678BB1",
"y. c #7089B7",
"u. c #7A87BA",
"i. c #7D89B9",
"p. c #7E8ABB",
"a. c #7C89BE",
"s. c #7081C4",
"d. c #7485C5",
"f. c #7586C6",
"g. c #7888C6",
"h. c #7183C8",
"j. c #7385C9",
"k. c #7486CB",
"l. c #7688CB",
"z. c #7789CD",
"x. c #7D8DC9",
"c. c #7F8ECA",
"v. c #7F8FCA",
"b. c #798BD1",
"n. c #858A9A",
"m. c gray62",
"M. c #959AA5",
"N. c #969DB1",
"B. c #9099BC",
"V. c #9EABAE",
"C. c #AAADB6",
"Z. c #A9AFBB",
"A. c #B3B4B5",
"S. c #8292CB",
"D. c #8595CD",
"F. c #8996CA",
"G. c #8B9ACF",
"H. c #8090D0",
"J. c #8696D1",
"K. c #8B9AD6",
"L. c #9CA7C7",
"P. c #92A0D9",
"I. c #93A0D9",
"U. c #94A2DB",
"Y. c #95A3DB",
"T. c #95A5DA",
"R. c #94A2DD",
"E. c #97A5DE",
"W. c #A2BCC2",
"Q. c #A0BCC5",
"!. c #A6B2DD",
"~. c #A8B3DF",
"^. c #B3BCDF",
"/. c #98A6E2",
"(. c #9FAFEB",
"). c #AAB8E7",
"_. c #A7B4E8",
"`. c #A4B3ED",
"'. c #B3BFE2",
"]. c #A5B4F4",
"[. c #A3B4FA",
"{. c #A4B5F9",
"}. c #A5B6FB",
"|. c #A7B8FD",
" X c #A8B8FB",
".X c #AABBFF",
"XX c #AEBDFD",
"oX c #ACBCFE",
"OX c #ACBDFF",
"+X c #AEBEFF",
"@X c #BFC9CB",
"#X c #BEC4D0",
"$X c #BFC5D3",
"%X c #B9C2E3",
"&X c #B6C4FB",
"*X c #B2C2FF",
"=X c #B8C6FF",
"-X c #C1C7D3",
";X c #C2C6D6",
":X c #C4CAD5",
">X c #C5CBD7",
",X c #CFD0D0",
"<X c #D2D2D3",
"1X c LightGray",
"2X c #DADAD8",
"3X c #DBDBD9",
"4X c #E4E1DF",
"5X c #C0CCF7",
"6X c #C7D2F6",
"7X c #CCD6F0",
"8X c #CED7F2",
"9X c #CED8F3",
"0X c #CFD9F5",
"qX c #C2D0FF",
"wX c #C6D3FF",
"eX c #C9D4F8",
"rX c #CDD7FF",
"tX c #D0DAF1",
"yX c #D1DBF3",
"uX c #D2DBF3",
"iX c #D6DFF5",
"pX c #D1E0EB",
"aX c #DAE2F1",
"sX c #DCE3F1",
"dX c #DDE5F3",
"fX c #DEE5F3",
"gX c #DEE5F5",
"hX c #DDE5F8",
"jX c #DAE2FF",
"kX c #DDE6FF",
"lX c #E1EAEA",
"zX c #E7EAF7",
"xX c #E5E9FA",
"cX c #E2E8FF",
"vX c #E3E9FF",
"bX c #E4EAFF",
"nX c #EAEDFF",
"mX c #ECF0FF",
"MX c #F5F4F1",
"NX c #F5F8F7",
"BX c #F7FAFF",
"VX c None",
/* pixels */
"VXVXVXVXVXVXVXVXVXVXVXVXVXVXVXVXVXVXVXVXVXVXVXVXVXVXVXVXVXVXVXVX",
"VXVXVXVXVXVXVXVXVXVXVXU VXVXVXVXVXVXVXVXU VXVXVXVXVXVXVXVXVXVXVX",
"VXVXVXVXVXVXVXVXVXVX7.W.J VXVXVXVXVXVXJ W.7.VXVXVXVXVXVXVXVXVXVX",
"VXVXVXVXP VXVXVXVX` pXNXV.  VXVXVXVX  V.NXpX` VXVXVXVXP VXVXVXVX",
"VXVXVXVXK L VXVX' >X8X^.MXm.+     + m.MX^.8X>X' VXVXL K VXVXVXVX",
"VXVXVX  w.t.m | :X0XD.g.%X2X6 M.M.6 2X%Xg.D.0X:X| m t.w.  VXVXVX",
"VXVXVX  C._.M  .).G.6.s.H.B.; ] } : B.H.s.6.G.). .M _.C.  VXVXVX",
"VXVXVX+.L.J.%.=.h.j.z.4.F N , o.G & N F 4.z.j.h.=.%.J.L.+.VXVXVX",
"VXVX  #XT.5.l.b.;.Q ! D     0 5X!.7     D ! Q ;.b.l.5.T.#X  VXVX",
"VXVX  @.u.k.-...B     VXVXVXw sXfXw VXVXVX    B ..-.k.u.@.  VXVX",
"VXVX    *.:.j   VXVXVXVXVXVXw aXaXw VXVXVXVXVXVX  j :.*.    VXVX",
"VXVXV - ~ g VXVXVXVXVXVXVXVXw gXgXw VXVXVXVXVXVXVXVXg ~ - V VXVX",
"VX@ y.a   VXVXVXVXVXVXVXVXVX4 Z.Z.4 VXVXVXVXVXVXVXVXVX  a y.@ VX",
"VXo ^ 3 VXVXVXVXVXVXVXVXVXVXu s s u VXVXVXVXVXVXVXVXVXVX3 ^ o VX",
"VX$ ,Xv VXVXVXVXVXVXVXVXVXk `.tXtX`.k VXVXVXVXVXVXVXVXVXv ,X$ VX",
"VX$ 1Xb VXVXVXVXVXVXVXVXh (.f.x.x.f.(.h VXVXVXVXVXVXVXVXb 1X$ VX",
"VX$ <Xb VXVXVXVXVXVXVXVXl 9Xc.iXiXc.9Xl VXVXVXVXVXVXVXVXb <X$ VX",
"VX$ -Xc VXVXVXVXVXVXVXVXz yXv.hXhXv.yXz VXVXVXVXVXVXVXVXc -X$ VX",
"VX$ $Xx VXVXVXVXVXVXVXVXz uXd.S.S.d.uXz VXVXVXVXVXVXVXVXx $X$ VX",
"VX@ e.i VXVXp I VXVXVXVX2 &.7X9X9X7X&.2 VXVXVXVXI p VXVXi e.@ VX",
"VXO <.a.f $.@X8.H VXVXVX> W ( A Y ( W > VXVXVXH 8.@X$.f a.<.O VX",
"VXO 1.{.p.~.BX0.= VXVXVXVX< t >.X.r 1 VXVXVXVX= 0.BX~.p.{.1.O VX",
"VXVXB R.*X|.vX#.  VXVXVXVXVX9 6X'.8 VXVXVXVXVX  #.vX|.*XR.B VXVX",
"VXVX  R U..XbXO.VXVX/ q.VXVXw sXdXw VXVXq./ VXVXO.bX.XU.R   VXVX",
"VXVXVX  3.[.cXA.S T Q.lX9.  q sXsXq   9.lXQ.T S A.cX[.3.  VXVXVX",
"VXVXVX  Z K.rXkXN.n.jXnX4X_ e eXeXe _ 4XnXjXn.N.kXrXK.Z   VXVXVX",
"VXVXVX    { /.OXqXwX}.&XmX3X5 ,.,.5 3XmX&X}.wXqXOX/.{     VXVXVX",
"VXVXVXVX    [ i.P.+XoX X=X;X% n n % ;X=X XoX+XP.i.[     VXVXVXVX",
"VXVXVXVXVX      E F.I.+X].r.) zXzX) r.].+XI.F.E       VXVXVXVXVX",
"VXVXVXVXVXVXVXVX    C U.2.d xXXXXXxXd 2.U.C     VXVXVXVXVXVXVXVX",
"VXVXVXVXVXVXVXVXVXVX. #   y Y.E.E.Y.y   # . VXVXVXVXVXVXVXVXVXVX",
"VXVXVXVXVXVXVXVXVXVXVXVXVXX * * * * X VXVXVXVXVXVXVXVXVXVXVXVXVX"
};
