/* XPM */
static char *result[] = {
/* columns rows colors chars-per-pixel */
"32 32 12 1 ",
"  c black",
". c #5D3D1E",
"X c #7C5426",
"o c #935C2D",
"O c #A36B2D",
"+ c #B27335",
"@ c #C27B3D",
"# c #F09A5C",
"$ c #F0C1A9",
"% c #F0E7C1",
"& c #F0EFEF",
"* c None",
/* pixels */
"********************************",
"********************************",
"********************************",
"***********......***************",
"**********.......XXXX***********",
"***** **XXXXX...X####X**********",
"****** X+++++XXX#$$$#+X*********",
"*******&@@@@@+++#$$$$#+*********",
"***** &+@@@@@@+#$$$$$$$*********",
"***   &+@@@@@@+#$$$$$$$*********",
"*** %o+@+@@@@@+#$o$$$$$*********",
"***%%o++o@@@@@+#o#$$$$$*********",
"****%%oo+@@@@@+##$$$$$**********",
"****$%%%@@@@@+#$$$$$$***********",
"*****$$%+@@@+##$****************",
"*******ooo@+X*******************",
"*******Xoo#o+X******************",
"******X++Xo+@@X*****************",
"******o@@+X+@@OX****************",
"******XO@@+@@@@+o***************",
"********o++.@@@@@o**XoO+OOoX****",
"**********O.@@@@@@+@@..X********",
"**********.@@@@@@@@..X**********",
"**********.@@@@@++.ooXX*********",
"*********X.oO+OoO..@@@+XX*******",
"*********@+X@XX..o@@@@@@@X******",
"*********X@++@+X**X++@@@@o******",
"**********X+oo.*******+@@X******",
"**********************++@X******",
"***********************+OO******",
"********************************",
"********************************"
};
