/* XPM */
static char *result[] = {
/* columns rows colors chars-per-pixel */
"32 32 12 1 ",
"  c black",
". c #5D3D1E",
"X c #7C5426",
"o c #935C2D",
"O c #A36B2D",
"+ c #B27335",
"@ c #C27B3D",
"# c #F09A5C",
"$ c #F0C1A9",
"% c #F0E7C1",
"& c #F0EFEF",
"* c None",
/* pixels */
"********************************",
"********************************",
"***************.****************",
"***********......*XX************",
"**********.......X++X***********",
"***** **XXXXX...X###+X**********",
"****** X+++++XXX#$$$#+**********",
"*******&@@@@@+++#$$$$$**********",
"***** &+@@@@@@+#$$$$$$**********",
"***   &+@@@@@@+#$$$$$$**********",
"*** %o+@+@@@@@+#$o$$$$**********",
"***%%o++o@@@@@+#o#$$$***********",
"****%%oo+@@@@@+##$$$************",
"****$%%%@@@@@+#$$$$*************",
"*****$$%+@@@+##$****************",
"*******ooo@+X*******************",
"********++XX@X******************",
"*******o@@@X@@X*****************",
"*******XO@@X@@@XX***************",
"********.O@@@@@@+o*****XoOOoX***",
"*********.o+@@@@@@o**oO@+o******",
"**********.O@@@@@@@+@@.X********",
"********...O.@@@@@@@.X**********",
"********.@O+.+@@@@@.************",
"********.@+XX.@@@@@.***OX*******",
"*********.@+o.@@@@@OXoO@@X******",
"*********..@+..+@@@@@@@@@@@o****",
"***********..*.X+@@@@@+OOO@@o***",
"*****************o+@@++O*OOoX***",
"*******************XX****OoXX***",
"********************************",
"********************************"
};
