/* XPM */
static char *result[] = {
/* columns rows colors chars-per-pixel */
"32 32 13 1 ",
"  c black",
". c #5D3D1E",
"X c #7C5426",
"o c #935C2D",
"O c #A36B2D",
"+ c #B27335",
"@ c #C27B3D",
"# c #D1833D",
"$ c #F09A5C",
"% c #F0C1A9",
"& c #F0E7C1",
"* c #F0EFEF",
"= c None",
/* pixels */
"================================",
"================...=============",
"==============......=XX=========",
"=============.......X++X========",
"======== ==XXXXX...X$$$+X=======",
"========= X+++++XXX$%%%$+=======",
"==========*@@@@@+++$%%%%%=======",
"======== *+@@@@@@+$%%%%%%=======",
"======   *+@@@@@@+$%%%%%%=======",
"====== &o+@+@@@@@+$%o%%%%=======",
"======&&o++o@@@@@+$o$%%%========",
"=======&&oo+@@@@@+$$%%%=========",
"=======%&&&@@@@@+$%%%%==========",
"========%%&+@@@+$$%=============",
"==========ooo@+X================",
"==========O+XX@@X===============",
"=========X@@@X@@@X==============",
"=========X+@@X@@@+.=============",
"==========X+@@@@@@+X============",
"===========XO@@@@@@@X===XoOOooX=",
"=============+@@@@@@@O+@@.X=====",
"=============O@@@@@@@@@.X=======",
"=============o#+@@@@@.X=========",
"=============..o@@@@@X==========",
"============.oo.@@@@@X==========",
"===========..@+.O+@@+XO+========",
"==========.@.@@+.O@@@@@@o=======",
"==========.@@@@...@@@@@@+=======",
"===========.O@.===.++@@@@X======",
"============...====XXXXO@O======",
"========================+@======",
"========================XX======"
};
